<svg id="Capa_1" enable-background="new 0 0 512.384 512.384" height="512" viewBox="0 0 512.384 512.384" width="512" xmlns="http://www.w3.org/2000/svg"><g><g><g><g id="XMLID_109_"><g><path d="m362.099 28.927c16.3 4.15 26.03 20.93 22.32 37.33l-34.61 153.15-20.97 87.9h-90.31l-23.09-139.29-17.17-125.46c-2.35-17.18 9.91-32.99 27.26-34.88 16.72-1.82 31.71 10.47 34 27.14l24.86 181.67c.21 1.54 2.41 1.64 2.75.12l37.2-164.58c3.83-16.91 20.85-27.42 37.76-23.1z" fill="#ffefe7"/></g></g><g id="XMLID_107_"><g><path d="m307.669 234.957c.85-3.84 2.56-7.54 5.15-10.8 5.23-6.58 13-10.07 20.89-10.07 4.91 0 9.87 1.35 14.29 4.16l38.73 24.66c14.32 9.11 22.6 25.26 21.63 42.21l-3.17 55.53c-1.2 21-10.87 40.62-26.8 54.36l-49.72 42.88c-.59.51-.92 1.24-.92 2.02v55.886c0 5.023-4.072 9.094-9.094 9.094h-172.991c-5.023 0-9.094-4.072-9.094-9.094v-45.536c0-4.33-1.04-8.6-3.02-12.46l-1.15-2.23c-10.45-20.29-15.9-42.77-15.9-65.59v-135.02z" fill="#ffefe7"/></g></g><path d="m169.785 455.591c0-4.33-1.04-8.6-3.02-12.46l-1.15-2.23c-10.45-20.29-15.9-42.77-15.9-65.59v-110.05h-33.215v104.715c0 22.82 5.45 45.3 15.9 65.59l1.15 2.23c1.98 3.86 3.02 8.13 3.02 12.46v45.536c0 5.023 4.072 9.094 9.094 9.094h24.942c-.522-1.147-.821-2.418-.821-3.76z" fill="#ffd1c2"/><g><g id="XMLID_108_"><g><path d="m180.595 241.28v-6.324h-38.968v80.553c9.197-1.239 17.623-4.94 24.588-10.422 2.263-1.781 5.321-2.116 7.903-.841 6.789 3.354 14.426 5.239 22.499 5.23 27.951-.031 50.812-23.701 50.812-51.651l-.022-19.146z" fill="#ffd1c2"/><path d="m227.429 192.427v66.18c0 17.05-13.82 30.87-30.87 30.87s-30.87-13.82-30.87-30.87v-48.91-17.27c0-17.05 13.82-30.87 30.87-30.87 8.52 0 16.24 3.45 21.83 9.04s9.04 13.31 9.04 21.83z" fill="#ffefe7"/><g><path d="m165.689 258.607v6.5c0 17.05-13.82 30.87-30.87 30.87s-30.87-13.82-30.87-30.87v-53.41c0-17.05 13.82-30.87 30.87-30.87 8.52 0 16.24 3.46 21.83 9.04 5.59 5.59 9.04 13.3 9.04 21.83z" fill="#ffefe7"/><path d="m120.662 265.845v-57.277c0-11.621 6.006-21.832 15.079-27.718-.307-.009-.612-.023-.921-.023-17.05 0-30.87 13.82-30.87 30.87v53.41c0 17.05 13.82 30.87 30.87 30.87 1.562 0 3.096-.118 4.596-.342-11.095-5.324-18.754-16.662-18.754-29.79z" fill="#ffe0d1"/></g><path d="m186.71 258.891v-52.324-18.475c0-10.77 5.156-20.332 13.133-26.36-1.079-.114-2.174-.176-3.284-.176-17.05 0-30.87 13.82-30.87 30.87v17.27 48.91c0 17.05 13.82 30.87 30.87 30.87 2.861 0 5.627-.397 8.256-1.125-10.74-5.45-18.105-16.591-18.105-29.46z" fill="#ffe0d1"/></g></g></g><path d="m343.762 244.755 6.047-25.348 4.624-20.461c-6.424-3.19-13.5-4.859-20.724-4.859-14.322 0-27.644 6.424-36.55 17.629-4.381 5.514-7.499 12.056-9.016 18.911-1.042 4.7-1.339 9.46-.937 14.128z" fill="#ffe0d1"/><path d="m318.459 234.962-31.042-.006c-1.719 13.739 2.72 27.595 12.321 37.781l5.738 6.085c2.07 2.196 1.498 5.779-1.176 7.177-8.295 4.334-15.953 9.649-22.838 15.819-16.206 14.523-26.427 34.563-29.329 56.13l-.198 1.471c-5.01 37.244 23.955 70.366 61.535 70.366h4.989l36.436-113.727z" fill="#ffe0d1"/><path d="m386.729 242.907c14.32 9.11 22.6 25.26 21.63 42.21l-3.17 55.53c-1.2 21-10.87 40.62-26.8 54.36l-49.72 42.88c-.59.51-.92 1.24-.92 2.02v3.65h-34.073c-17.235 0-31.207-13.972-31.207-31.207 0-15.499 1.86-30.943 5.541-45.999l4.949-20.244c10.29-21.8 28.7-38.72 51.29-47.14l15.65-5.83c2.3-.86 2.98-3.79 1.3-5.58l-26.91-28.54c-6.23-6.61-8.48-15.67-6.62-24.06.85-3.84 2.56-7.54 5.15-10.8 5.23-6.58 13-10.07 20.89-10.07 4.91 0 9.87 1.35 14.29 4.16z" fill="#ffefe7"/></g><g id="XMLID_3_"><g><path d="m259.529 34.817 24.688 180.929-56.85 35.57-11.928-83.299-17.17-125.46c-2.35-17.18 9.91-32.99 27.26-34.88 16.72-1.82 31.71 10.47 34 27.14z" fill="#ffefe7"/></g><path d="m238.513 163.501-17.17-125.46c-1.66-12.132 3.964-23.582 13.524-29.928-3.001-.62-6.133-.786-9.338-.437-17.35 1.89-29.61 17.7-27.26 34.88l17.17 125.46 11.99 83.26 19.978-12.425z" fill="#ffd1c2"/><path d="m351.782 57.733c2.603-11.492 11.314-20.023 21.926-22.957-3.302-2.694-7.221-4.733-11.609-5.85-16.91-4.32-33.93 6.19-37.76 23.1l-37.2 164.58 24.972 5.182z" fill="#ffe0d1"/></g></g><g><path d="m390.758 236.577-32.471-20.666 33.451-147.996c4.616-20.424-7.847-41.176-27.781-46.26-10.139-2.585-20.628-1.005-29.536 4.451-8.912 5.457-15.089 14.074-17.393 24.266l-14.253 63.059c-.913 4.04 1.622 8.056 5.662 8.969 4.036.912 8.056-1.622 8.969-5.662l14.253-63.059c1.403-6.207 5.165-11.456 10.594-14.78 5.426-3.322 11.819-4.286 17.997-2.708 12.137 3.095 19.699 15.844 16.857 28.418l-32.494 143.761c-13.376-4.545-28.511-.406-37.67 11.123-10.485 13.2-9.672 32.404 1.893 44.671l22.703 24.082-9.905 3.693c-24.567 9.16-44.262 27.262-55.458 50.97-1.769 3.746-.166 8.216 3.58 9.984 3.743 1.768 8.215.167 9.984-3.579 9.515-20.15 26.254-35.535 47.134-43.321l15.646-5.833c3.442-1.284 5.995-4.187 6.829-7.765.833-3.578-.174-7.311-2.694-9.983l-26.904-28.538c-6.485-6.878-6.941-17.648-1.061-25.051 6.115-7.699 16.986-9.524 25.279-4.245l38.736 24.653c12.018 7.648 18.979 21.236 18.168 35.459l-3.17 55.525c-1.077 18.868-9.902 36.767-24.212 49.11l-49.716 42.88c-2.243 1.935-3.529 4.743-3.529 7.705v64.975c0 4.142 3.357 7.5 7.5 7.5s7.5-3.358 7.5-7.5v-62.765l48.042-41.437c17.371-14.982 28.083-36.71 29.391-59.613l3.171-55.525c1.119-19.643-8.495-38.406-25.092-48.968z"/><path d="m285.394 225.188c.13.006.26.009.39.009 4.142 0 7.754-2.863 8.676-6.938l15.729-69.591c.913-4.04-1.622-8.056-5.662-8.969-4.04-.915-8.057 1.622-8.969 5.662l-8.302 36.732-20.3-148.295c-2.84-20.745-21.782-35.812-42.241-33.579-10.4 1.134-19.67 6.293-26.1 14.526-6.432 8.236-9.194 18.472-7.777 28.824l15.289 111.693c-3.06-.789-6.267-1.208-9.57-1.208-17.993 0-33.125 12.451-37.251 29.188-6.649-5.527-15.187-8.856-24.489-8.856-21.157 0-38.37 17.213-38.37 38.37v52.35c0 11.223 4.844 21.335 12.55 28.358v42.834c0 4.142 3.358 7.5 7.5 7.5s7.5-3.358 7.5-7.5v-34.385c3.434 1.011 7.063 1.564 10.82 1.564 14.186 0 26.588-7.744 33.228-19.22 7.028 7.806 17.205 12.724 28.511 12.724 21.157 0 38.37-17.212 38.37-38.37v-5.227c0-4.142-3.358-7.5-7.5-7.5s-7.5 3.358-7.5 7.5v5.227c0 12.886-10.484 23.37-23.37 23.37s-23.37-10.483-23.37-23.37v-66.187c0-12.886 10.483-23.37 23.37-23.37s23.37 10.483 23.37 23.37v28.998c0 4.142 3.358 7.5 7.5 7.5s7.5-3.358 7.5-7.5v-28.998c0-11.169-4.8-21.235-12.441-28.253l-16.786-122.636c-.863-6.305.819-12.54 4.737-17.557 3.916-5.014 9.564-8.157 15.904-8.848 12.458-1.356 24.006 7.93 25.754 20.702l24.868 181.67c.584 4.267 4.129 7.499 8.432 7.686zm-127.207 39.918c0 12.886-10.484 23.37-23.37 23.37s-23.37-10.483-23.37-23.37v-52.35c0-12.886 10.484-23.37 23.37-23.37s23.37 10.484 23.37 23.37z"/><path d="m139.063 432.132c-9.856-19.137-15.065-40.629-15.065-62.155v-1.717c0-4.142-3.358-7.5-7.5-7.5s-7.5 3.358-7.5 7.5v1.717c0 23.904 5.785 47.771 16.73 69.022l1.151 2.235c1.431 2.779 2.188 5.899 2.188 9.024v54.625c0 4.142 3.358 7.5 7.5 7.5s7.5-3.358 7.5-7.5v-54.625c0-5.503-1.332-10.999-3.852-15.892z"/></g></g></svg>