<svg id="Capa_1" enable-background="new 0 0 512.385 512.385" height="512" viewBox="0 0 512.385 512.385" width="512" xmlns="http://www.w3.org/2000/svg"><g><g><g><path d="m357.306 219.397v.01l36.92 23.5c14.32 9.11 22.6 25.26 21.63 42.21l-3.17 55.53c-1.2 21-10.87 40.62-26.8 54.36l-49.72 42.88c-.59.51-.92 1.24-.92 2.02v55.075c0 5.47-4.434 9.905-9.905 9.905h-171.37c-5.47 0-9.905-4.435-9.905-9.905v-44.725c0-4.33-1.04-8.6-3.02-12.46l-1.15-2.23c-10.45-20.29-15.9-42.77-15.9-65.59v-66.37-46.94l21.33-65.57-45.35-90.87c-7.73-14.94-2.54-33.62 12.18-41.76 15.28-8.43 34.41-2.56 42.37 12.84l72.31 145.14c.71 1.43 2.87.76 2.65-.82l-23.72-173.07c-2.35-17.18 9.91-32.99 27.26-34.88 16.72-1.82 31.71 10.47 34 27.14l24.86 181.62c.21 1.55 2.42 1.65 2.77.12l37.18-164.53c3.83-16.91 20.85-27.42 37.76-23.1 16.3 4.15 26.03 20.93 22.32 37.33z" fill="#ffefe7"/></g><path d="m178.175 458.037c0-4.33-1.04-8.6-3.02-12.46l-1.15-2.23c-10.45-20.29-15.9-42.77-15.9-65.59v-85.439h-34.109v77.659c0 22.82 5.45 45.3 15.9 65.59l1.15 2.23c1.98 3.86 3.02 8.13 3.02 12.46v44.725c0 5.47 4.435 9.905 9.905 9.905h24.204z" fill="#ffd1c2"/><g><path d="m191.133 277.375v-55.407c0-28.05-22.82-50.87-50.87-50.87-1.62 0-3.22.084-4.802.233l9.865 19.766-21.33 65.57v46.94 21.955c5.112 1.73 10.579 2.683 16.267 2.683 28.05 0 50.87-22.82 50.87-50.87z" fill="#ffd1c2"/><path d="m140.263 308.245c-17.049 0-30.87-13.821-30.87-30.87v-55.407c0-17.049 13.821-30.87 30.87-30.87 17.049 0 30.87 13.821 30.87 30.87v55.407c0 17.049-13.821 30.87-30.87 30.87z" fill="#ffefe7"/><path d="m133.916 277.375v-55.407c0-12.691 7.67-23.591 18.618-28.335-3.759-1.629-7.912-2.535-12.27-2.535-17.049 0-30.87 13.821-30.87 30.87v55.407c0 17.049 13.821 30.87 30.87 30.87 4.358 0 8.52-.91 12.279-2.539-10.948-4.744-18.627-15.64-18.627-28.331z" fill="#ffe0d1"/><g id="XMLID_116_"><g><g id="XMLID_117_"><g><path d="m355.066 55.336c2.649-11.697 11.611-20.344 22.48-23.127-2.423-1.441-5.082-2.552-7.949-3.282-16.91-4.32-33.93 6.19-37.76 23.1l-37.18 164.53c.07.007.14.015.21.022 12.973 1.372 24.951-7.071 27.859-19.788z" fill="#ffe0d1"/><path d="m366.412 397.912v-172.709l-9.105-5.796v-.01l4.622-20.453c-6.426-3.192-13.502-4.862-20.724-4.862-14.329 0-27.651 6.429-36.546 17.631-6.527 8.214-10.123 18.518-10.123 29.014 0 11.961 4.511 23.33 12.698 32.011l5.512 5.845c2.184 2.316 1.575 6.087-1.242 7.57-21.458 11.292-38.626 29.158-49.133 51.417l-.727 1.751c-3.193 8.849-5.852 22.244-7.969 36.04-4.403 28.69 17.847 54.544 46.872 54.544h39.436z" fill="#ffd1c2"/><path d="m394.226 242.907c14.32 9.11 22.6 25.26 21.63 42.21l-3.17 55.53c-1.2 21-10.87 40.62-26.8 54.36l-47.64 41.09h-70.71v-16.091c0-25.195 4.371-50.199 12.92-73.899 10.29-21.8 28.7-38.72 51.29-47.14l15.65-5.83c2.3-.86 2.98-3.79 1.3-5.58l-26.91-28.54c-4.82-5.11-7.25-11.69-7.25-18.29 0-5.84 1.91-11.7 5.78-16.57 8.48-10.68 23.67-13.23 35.18-5.91z" fill="#ffefe7"/></g></g></g></g></g><path d="m227.509 30.701c-1.013-8.283.702-16.287 4.358-22.876-16.727 2.457-28.398 17.941-26.101 34.732l23.61 172.28c11.299-1.601 19.235-11.954 17.847-23.281z" fill="#ffe0d1"/><path d="m115.855 82.678c-4.167-8.054-4.57-17.205-1.758-25.196-.651.303-1.302.632-1.94.985-14.72 8.14-19.91 26.82-12.18 41.76l44.21 88.59 27.234 6.856z" fill="#ffd1c2"/></g><g><path d="m370.026 398.78-38.754 33.425c-2.243 1.934-3.529 4.742-3.529 7.705v64.976c0 4.142 3.358 7.5 7.5 7.5s7.5-3.358 7.5-7.5v-62.766l37.08-31.982c3.137-2.705 3.486-7.441.781-10.578-2.705-3.136-7.442-3.486-10.578-.78z"/><path d="m398.255 236.577-32.471-20.666 33.451-147.996c4.617-20.424-7.846-41.176-27.781-46.26-10.14-2.586-20.628-1.005-29.537 4.451-8.912 5.457-15.089 14.074-17.392 24.266l-29.773 131.724-20.3-148.296c-2.839-20.746-21.779-35.814-42.241-33.579-10.4 1.134-19.669 6.293-26.1 14.526-6.432 8.236-9.194 18.472-7.777 28.825l8.002 58.378c.563 4.104 4.346 6.979 8.449 6.412 4.104-.562 6.975-4.345 6.412-8.449l-8.002-58.376c-.863-6.305.819-12.54 4.737-17.557 3.916-5.014 9.564-8.157 15.904-8.848 12.452-1.357 24.005 7.93 25.753 20.702l24.861 181.62c.585 4.271 4.136 7.506 8.443 7.691 4.295.194 8.122-2.731 9.072-6.936l37.188-164.53c1.403-6.207 5.165-11.456 10.594-14.78 5.425-3.323 11.816-4.287 17.997-2.708 12.138 3.095 19.7 15.844 16.857 28.418l-32.491 143.761c-13.376-4.545-28.511-.408-37.67 11.123-10.486 13.2-9.672 32.404 1.892 44.671l22.703 24.081-9.905 3.694c-24.567 9.16-44.262 27.262-55.458 50.97-1.769 3.746-.167 8.216 3.579 9.984 3.746 1.77 8.216.167 9.984-3.579 9.516-20.15 26.255-35.535 47.135-43.321l15.644-5.833c3.442-1.284 5.996-4.187 6.83-7.765s-.173-7.31-2.693-9.984l-26.905-28.538c-6.485-6.879-6.941-17.648-1.061-25.051 6.116-7.7 16.984-9.525 25.28-4.245l38.736 24.653c12.019 7.649 18.98 21.236 18.168 35.459l-3.169 55.525c-.771 13.516-5.424 26.457-13.455 37.424-2.447 3.342-1.722 8.035 1.62 10.482 1.336.978 2.887 1.449 4.425 1.449 2.309 0 4.588-1.063 6.057-3.069 9.745-13.309 15.391-29.019 16.328-45.432l3.169-55.525c1.123-19.64-8.491-38.403-25.089-48.966z"/><path d="m225.59 131.957c-.562-4.103-4.341-6.975-8.449-6.412-4.104.562-6.975 4.346-6.412 8.449l6.299 45.953-55.792-111.985c-.017-.033-.033-.066-.05-.1-4.798-9.281-12.948-16.063-22.947-19.097-9.999-3.033-20.547-1.918-29.705 3.14-17.994 9.937-24.827 33.128-15.248 51.721l40.218 80.58c-17.943 3.204-31.61 18.912-31.61 37.762v55.407c0 12.185 5.716 23.053 14.6 30.087v53.296c0 4.142 3.358 7.5 7.5 7.5s7.5-3.358 7.5-7.5v-46.036c2.819.662 5.752 1.023 8.77 1.023 21.157 0 38.37-17.213 38.37-38.37v-55.407c0-17.544-11.84-32.365-27.945-36.919l-44.004-88.167c-.016-.032-.032-.063-.048-.095-5.92-11.452-1.816-25.695 9.148-31.75 5.583-3.083 12.01-3.764 18.099-1.917 6.074 1.843 11.027 5.956 13.953 11.584l72.283 145.085c1.544 3.099 4.65 4.942 7.953 4.942.876 0 1.768-.13 2.646-.401 4.188-1.291 6.796-5.38 6.201-9.723zm-61.957 90.011v55.407c0 12.886-10.483 23.37-23.37 23.37s-23.37-10.484-23.37-23.37v-55.407c0-12.886 10.484-23.37 23.37-23.37s23.37 10.484 23.37 23.37z"/><path d="m146.559 432.132c-6.541-12.7-11.019-26.321-13.31-40.485-.661-4.089-4.517-6.869-8.601-6.207-4.089.661-6.868 4.512-6.207 8.601 2.543 15.726 7.517 30.853 14.782 44.958l1.151 2.235c1.431 2.778 2.187 5.898 2.187 9.024v54.626c0 4.142 3.358 7.5 7.5 7.5s7.5-3.358 7.5-7.5v-54.626c0-5.504-1.332-10.999-3.852-15.892z"/></g></g></svg>