<svg id="Capa_1" enable-background="new 0 0 512.385 512.385" height="512" viewBox="0 0 512.385 512.385" width="512" xmlns="http://www.w3.org/2000/svg"><g><g><g id="XMLID_120_"><g><path d="m394.344 219.397v.01l36.92 23.5c14.33 9.11 22.6 25.26 21.63 42.21l-3.17 55.53c-1.2 21-10.87 40.62-26.8 54.36l-49.72 42.88c-.58.51-.92 1.24-.92 2.02v54.137c0 5.989-4.855 10.843-10.843 10.843h-169.493c-5.989 0-10.843-4.855-10.843-10.843v-43.787c0-4.33-1.04-8.6-3.02-12.46l-1.15-2.23c-10.45-20.29-15.9-42.77-15.9-65.59v-82.96c0-1.73-.68-3.38-1.9-4.61l-91.05-91.52c-12.05-12.46-11.5-32.46 1.38-44.24 12.41-11.35 31.77-10.29 43.46 1.8l89.03 88.69c.97.96 2.54-.17 1.94-1.39l-66.88-135.52c-7.73-14.94-2.54-33.62 12.18-41.76 15.28-8.43 34.41-2.56 42.37 12.84l72.85 146.23c.61 1.22 2.47.65 2.28-.7l-23.89-174.28c-2.35-17.18 9.91-32.99 27.26-34.88 16.72-1.82 31.71 10.47 34 27.14l24.86 181.62c.21 1.55 2.42 1.65 2.77.12l37.19-164.53c3.82-16.91 20.84-27.42 37.75-23.1 16.3 4.15 26.03 20.93 22.32 37.34z" fill="#ffefe7"/></g><g><path d="m208.09 438.631c0-4.33-1.04-8.6-3.02-12.46l-1.15-2.23c-10.45-20.29-15.9-42.77-15.9-65.59v-82.96c0-1.73-.68-3.38-1.9-4.61l-91.05-91.52c-10.825-11.193-11.475-28.467-2.16-40.404-8.316-.761-16.86 1.767-23.446 7.79-12.88 11.78-13.43 31.78-1.38 44.24l91.05 91.52c1.22 1.23 1.9 2.88 1.9 4.61v82.96c0 22.82 5.45 45.3 15.9 65.59l1.15 2.23c1.98 3.86 3.02 8.13 3.02 12.46v43.787c0 5.989 4.855 10.843 10.843 10.843h16.143z" fill="#ffe0d1"/></g><g><g id="XMLID_121_"><g><path d="m388.451 54.101c2.715-12.02 12.108-20.807 23.382-23.332-1.645-.759-3.381-1.379-5.199-1.842-16.91-4.32-33.93 6.19-37.75 23.1l-37.19 164.53c-.05.23-.15.42-.28.58l19.949 1.04z" fill="#ffe0d1"/><path d="m367.278 417.136 35.902-192.105-8.836-5.624v-.01l4.623-20.452c-6.426-3.192-13.502-4.862-20.724-4.862-14.329 0-27.652 6.429-36.546 17.631-6.528 8.214-10.123 18.518-10.123 29.014 0 11.962 4.511 23.331 12.698 32.011l10.001 10.606c-.862.393-1.717.796-2.566 1.21-27.796 13.532-48.186 38.677-56.708 68.395l-1.553 5.417c-.47 1.639-.922 3.283-1.356 4.931-7.174 27.23 13.572 53.84 41.731 53.84h33.457z" fill="#ffd1c2"/><path d="m431.264 242.907c14.33 9.11 22.6 25.26 21.63 42.21l-3.17 55.53c-1.2 21-10.87 40.62-26.8 54.36l-49.72 42.88c-.58.51-.92 1.24-.92 2.02v.16h-68.01v-22.415c0-16.286 2.236-32.495 6.646-48.172l6.574-23.372c10.3-21.8 28.7-38.72 51.3-47.14l15.64-5.83c2.3-.86 2.98-3.79 1.3-5.58l-26.91-28.54c-4.82-5.11-7.25-11.69-7.25-18.29 0-5.84 1.91-11.7 5.78-16.57 8.48-10.68 23.67-13.23 35.18-5.91z" fill="#ffefe7"/></g></g></g></g><g fill="#ffe0d1"><path d="m264.58 36.996c-1.335-11.608 3.404-22.516 11.627-29.36-2.006-.192-4.061-.185-6.142.042-17.35 1.89-29.61 17.7-27.26 34.88l23.89 174.28c10.042-.604 17.518-9.515 16.366-19.509z"/><path d="m156.029 86.742c-4.614-9.922-4.614-21.332-.742-30.839-2.071.622-4.118 1.475-6.092 2.564-14.72 8.14-19.91 26.82-12.18 41.76l66.51 134.76c8.575-2.321 13.061-11.741 9.459-19.862z"/></g></g><g><path d="m397.588 406.954-29.277 25.251c-2.243 1.935-3.529 4.743-3.529 7.705v64.976c0 4.142 3.357 7.5 7.5 7.5s7.5-3.358 7.5-7.5v-62.765l27.604-23.808c3.137-2.705 3.486-7.441.781-10.578-2.707-3.138-7.444-3.486-10.579-.781z"/><path d="m435.295 236.577-32.471-20.666 33.45-147.995c4.617-20.424-7.846-41.177-27.781-46.261-10.141-2.586-20.627-1.004-29.537 4.451-8.912 5.457-15.088 14.074-17.391 24.265l-29.773 131.724-20.3-148.296c-2.839-20.746-21.8-35.817-42.24-33.579-10.401 1.134-19.67 6.292-26.101 14.526-6.433 8.235-9.194 18.472-7.777 28.825l18.694 136.375-55.792-111.983c-.017-.033-.033-.066-.051-.1-4.798-9.281-12.947-16.063-22.947-19.097-9.995-3.032-20.545-1.918-29.705 3.14-17.989 9.934-24.822 33.115-15.255 51.705l25.63 51.935c1.833 3.715 6.328 5.24 10.045 3.407 3.714-1.833 5.239-6.33 3.406-10.044l-25.659-51.996c-.021-.042-.042-.084-.063-.126-5.921-11.452-1.817-25.695 9.148-31.75 5.584-3.083 12.012-3.764 18.099-1.917 6.074 1.843 11.028 5.957 13.953 11.586l72.828 146.178c1.912 3.833 6.271 5.7 10.364 4.433 4.093-1.265 6.639-5.263 6.056-9.502l-23.89-174.279c-.863-6.305.819-12.54 4.737-17.557 3.916-5.014 9.564-8.156 15.905-8.848 12.467-1.355 24.005 7.93 25.753 20.702l24.861 181.62c.585 4.271 4.136 7.506 8.443 7.691 4.323.205 8.121-2.731 9.072-6.936l37.188-164.531c1.402-6.207 5.164-11.456 10.593-14.779 5.426-3.323 11.818-4.286 17.997-2.708 12.138 3.095 19.7 15.844 16.857 28.419l-32.491 143.761c-13.376-4.546-28.511-.407-37.671 11.123-10.485 13.2-9.672 32.404 1.893 44.671l22.704 24.081-9.906 3.694c-24.565 9.16-44.261 27.261-55.458 50.97-1.769 3.745-.166 8.215 3.579 9.984 3.746 1.769 8.216.167 9.985-3.579 9.516-20.15 26.255-35.536 47.134-43.321l15.646-5.833c3.441-1.284 5.994-4.187 6.828-7.764s-.172-7.31-2.692-9.984l-26.905-28.538c-6.485-6.878-6.941-17.648-1.061-25.051 6.116-7.699 16.986-9.525 25.279-4.245l38.737 24.653c12.019 7.649 18.979 21.235 18.167 35.459l-3.168 55.525c-.995 17.417-8.408 33.755-20.872 46.006-2.954 2.904-2.996 7.652-.092 10.606 1.468 1.494 3.408 2.243 5.349 2.243 1.898 0 3.797-.716 5.257-2.151 15.129-14.869 24.126-34.703 25.334-55.849l3.169-55.525c1.12-19.642-8.494-38.405-25.091-48.968z"/><path d="m183.573 177.63c-1.834-3.714-6.329-5.241-10.045-3.406-3.714 1.833-5.239 6.33-3.406 10.045l10.263 20.795-62.117-61.88c-14.556-15.005-38.705-15.941-53.866-2.071-7.72 7.061-12.148 16.7-12.471 27.141-.322 10.445 3.498 20.335 10.759 27.849.025.026.051.052.077.078l90.767 91.233v70.754c0 4.142 3.357 7.5 7.5 7.5s7.5-3.358 7.5-7.5v-71.155c0-3.732-1.45-7.246-4.084-9.894l-91.01-91.479c-4.398-4.571-6.712-10.58-6.516-16.925.195-6.359 2.896-12.231 7.602-16.535 9.242-8.453 24.05-7.79 33.008 1.481.033.034.066.068.101.102l89.027 88.688c3.031 3.019 7.754 3.397 11.227.902 3.475-2.496 4.621-7.091 2.729-10.926z"/><path d="m183.599 432.132c-6.92-13.437-11.521-27.854-13.676-42.852-.589-4.101-4.396-6.944-8.49-6.357-4.1.589-6.946 4.39-6.357 8.49 2.393 16.653 7.502 32.664 15.188 47.588l1.15 2.234c1.432 2.778 2.188 5.898 2.188 9.024v54.626c0 4.142 3.357 7.5 7.5 7.5s7.5-3.358 7.5-7.5v-54.626c0-5.504-1.332-10.999-3.853-15.893z"/></g></g></svg>