<svg id="Capa_1" enable-background="new 0 0 511.991 511.991" height="512" viewBox="0 0 511.991 511.991" width="512" xmlns="http://www.w3.org/2000/svg"><g><g><path clip-rule="evenodd" d="m80.662 492.409c27.752 6.237 59.982-3.629 85.041-26.25 48.644-43.882 16.923-73.619 100.689-151.462 38.155-35.491 64.66-65.937 67.579-115.121 7.966-133.603-101.454-224.515-229.696-176.578-26.845 10.035-51.223 26.278-68.77 48.985-37.05 47.936-31.012 100.38.482 160.789 14.485 27.781 27.355 59.474 20.098 107.665-2.636 17.491-10.063 33.167-16.583 47.114-17.32 37.05-3.175 94.88 41.16 104.858z" fill="#ffdcd5" fill-rule="evenodd"/></g><g><path clip-rule="evenodd" d="m358.548 501.991c22.224-19.815 53.944-38.383 90.229-38.383v-90.543c-36.284 0-68.005-18.568-90.229-38.383v83.654z" fill="#c1b0b5" fill-rule="evenodd"/></g><g><path clip-rule="evenodd" d="m456.714 463.608c24.917 0 45.27-20.382 45.27-45.271 0-24.918-20.353-45.271-45.27-45.271-11.396 0 3.43 0-7.937 0v90.543c11.367-.001-3.459-.001 7.937-.001z" fill="#dad0d3" fill-rule="evenodd"/></g><g><path d="m323.905 119.717c-5.31 1.52-8.381 7.057-6.861 12.366 6.008 20.987 8.345 43.495 6.945 66.9-2.575 43.377-23.71 70.535-64.404 108.388-49.151 45.676-60.34 76.405-69.331 101.097-6.688 18.367-11.97 32.874-31.251 50.268-22.446 20.263-51.625 29.427-76.145 23.917-18.153-4.085-27.999-17.247-33.062-27.568-9.441-19.245-9.937-44.683-1.234-63.3l.335-.717c6.688-14.305 14.27-30.518 17.077-49.143 7.899-52.46-6.759-86.236-21.12-113.777-32.708-62.739-33.151-109.017-1.437-150.051 15.408-19.939 37.664-35.753 64.359-45.733 62.926-23.524 123.695-13.384 166.723 27.82 3.989 3.819 10.32 3.682 14.139-.306 3.82-3.989 3.683-10.319-.306-14.139-23.051-22.073-51.902-36.857-83.433-42.752-33.467-6.255-68.499-2.676-104.126 10.644-30.188 11.285-55.493 29.348-73.18 52.236-36.626 47.389-36.777 101.893-.474 171.528 12.902 24.745 26.081 55.039 19.077 101.551-2.375 15.758-9.304 30.577-15.417 43.65l-.336.719c-11.303 24.179-10.754 55.808 1.397 80.578 9.878 20.136 26.437 33.727 46.629 38.272 6.313 1.418 12.784 2.114 19.321 2.113 25.792 0 52.595-10.82 74.611-30.695 22.973-20.725 29.614-38.963 36.646-58.273 8.686-23.855 18.531-50.893 64.156-93.292 36.783-34.215 67.495-67 70.75-121.846 1.535-25.666-1.049-50.427-7.682-73.595-1.52-5.308-7.054-8.38-12.366-6.86z"/><path d="m82.23 396.464c-5.003-2.339-10.955-.178-13.293 4.826-11.033 23.61-4.633 38.259.163 44.89 6.729 9.303 18.258 14.51 31.601 14.509 2.082 0 4.208-.126 6.366-.384 19.341-2.309 44.607-16.009 57.515-47.534 2.093-5.111-.354-10.951-5.465-13.043-5.11-2.093-10.95.355-13.043 5.465-9.621 23.499-27.682 33.618-41.377 35.253-8.679 1.037-15.929-1.203-19.392-5.988-3.835-5.303-3.213-14.075 1.751-24.701 2.339-5.004.178-10.955-4.826-13.293z"/><path d="m170.868 326.332c-4.08 3.723-4.369 10.048-.646 14.127 1.973 2.162 4.676 3.259 7.39 3.259 2.406 0 4.82-.863 6.738-2.613 68.813-62.793 99.359-106.719 102.137-146.864 1.443-20.483-.492-39.483-5.755-56.484-12.269-39.444-42.796-67.412-83.756-76.73-43.62-9.924-89.903 3.131-117.912 33.261-17.707 19.051-32.557 50.174-21.137 80.387 12.375 32.788 46.214 49.287 71.776 46.286 12.565-1.469 20.871 2.935 24.008 12.743 5.122 16.004-4.569 40.803-29.65 54.599-4.839 2.662-6.604 8.743-3.943 13.582 2.662 4.839 8.743 6.603 13.582 3.943 35.397-19.47 46.543-54.832 39.06-78.218-6.055-18.921-23.439-29.078-45.384-26.512-17.542 2.055-41.935-10.16-50.74-33.489-8.188-21.664 3.452-45.045 17.076-59.704 22.884-24.617 62.596-35.617 98.826-27.376 19.874 4.521 55.277 18.74 69.091 63.155 4.523 14.613 6.174 31.15 4.906 49.165-2.359 34.093-31.864 75.261-95.667 133.483z"/><path d="m456.714 363.065h-7.938c-37.734 0-68.558-22.459-83.574-35.847-2.94-2.623-7.147-3.273-10.745-1.662-3.596 1.612-5.91 5.185-5.91 9.125v167.309c0 3.94 2.314 7.514 5.91 9.125 1.312.588 2.705.875 4.088.875 2.409 0 4.789-.87 6.657-2.536 15.016-13.388 45.839-35.847 83.574-35.847h7.938c30.476 0 55.27-24.795 55.27-55.271s-24.794-55.271-55.27-55.271zm-88.166-7.708c17.269 12.154 41.595 24.796 70.229 27.267v71.423c-28.634 2.471-52.96 15.113-70.229 27.267zm90.229 98.186v-70.413c18.491 1.072 33.208 16.451 33.208 35.206s-14.717 34.135-33.208 35.207z"/><path d="m293.678 363.096c3.903-3.907 3.901-10.238-.006-14.142-3.906-3.903-10.239-3.901-14.142.006-38.23 38.262-38.229 100.496.003 138.728 1.953 1.953 4.512 2.929 7.071 2.929s5.119-.977 7.071-2.929c3.905-3.905 3.906-10.237 0-14.142-30.438-30.438-30.436-79.985.003-110.45z"/><path d="m321.71 391.135c3.905-3.905 3.905-10.237 0-14.142s-10.237-3.905-14.142 0c-22.796 22.797-22.796 59.89 0 82.687 1.953 1.953 4.512 2.929 7.071 2.929s5.119-.976 7.071-2.929c3.905-3.905 3.905-10.237 0-14.143-14.999-14.998-14.999-39.403 0-54.402z"/><path d="m302.181 95.439c1.95 1.949 4.499 2.922 7.05 2.922 2.56 0 5.122-.98 7.078-2.936 3.905-3.905 3.891-10.251-.014-14.157-3.905-3.905-10.237-3.905-14.143 0-3.905 3.905-3.905 10.237 0 14.143z"/></g></g></svg>