<svg id="Capa_1" enable-background="new 0 0 512 512" height="512" viewBox="0 0 512 512" width="512" xmlns="http://www.w3.org/2000/svg"><g><path d="m18.973 164.267c-6.336 0-11.472 5.136-11.472 11.472v223.134c0 21.826 17.693 39.519 39.519 39.519h165.69c4.97 0 9.351 3.258 10.782 8.018l2.009 4.684c1.43 4.759 5.812 8.018 10.782 8.018h39.436c4.97 0 9.351-3.258 10.782-8.018l2.009-4.684c1.43-4.759 5.812-8.018 10.782-8.018h165.691c21.826 0 39.519-17.693 39.519-39.519v-223.133c0-6.336-5.136-11.472-11.472-11.472h-179.024l-58.57 79.742-65.712-79.742h-170.751z" fill="#9dc6fb"/><g><path d="m493.028 164.267h-24.842c6.336 0 11.472 5.136 11.472 11.472v223.134c0 21.826-17.693 39.519-39.519 39.519h24.842c21.826 0 39.519-17.693 39.519-39.519v-223.133c0-6.336-5.136-11.473-11.472-11.473z" fill="#8993da"/></g><path d="m456.222 394.985h-174.499c-14.206 0-25.723-11.516-25.723-25.723l-30-11.68v-164.338l30-12.741c0-30.02 24.336-54.356 54.356-54.356h145.865c3.765 0 6.818 3.052 6.818 6.818v255.203c.001 3.765-3.052 6.817-6.817 6.817z" fill="#fff6f4"/><path d="m456.222 126.146h-22.901c3.765 0 6.818 3.052 6.818 6.818v255.203c0 3.765-3.052 6.818-6.818 6.818h22.901c3.765 0 6.818-3.052 6.818-6.818v-255.203c0-3.765-3.053-6.818-6.818-6.818z" fill="#d8e2f1"/><path d="m230.278 394.985h-174.499c-3.765 0-6.818-3.052-6.818-6.818v-255.203c0-3.765 3.052-6.818 6.818-6.818h145.865c30.02 0 54.356 24.336 54.356 54.356v188.76c0 14.207-11.516 25.723-25.722 25.723z" fill="#fff6f4"/><path d="m201.644 126.146h-23.521c30.02 0 54.356 24.336 54.356 54.356v188.76c0 14.206-11.516 25.723-25.723 25.723h23.521c14.206 0 25.723-11.516 25.723-25.723v-188.76c0-30.02-24.336-54.356-54.356-54.356z" fill="#d8e2f1"/><path d="m339.491 52.888h-237.473c-6.911 0-12.513 5.602-12.513 12.513v112.203c0 6.91 5.602 12.513 12.513 12.513h193.2c1.685 0 3.241.899 4.084 2.358l10.784 18.678c1.815 3.143 6.352 3.144 8.167 0l10.784-18.678c.842-1.459 2.399-2.358 4.084-2.358h6.372c6.911 0 12.513-5.602 12.513-12.513v-112.203c-.002-6.911-5.605-12.513-12.515-12.513z" fill="#dd636e"/><path d="m339.491 52.888h-21.779c6.911 0 12.513 5.602 12.513 12.513v112.203c0 6.91-5.602 12.513-12.513 12.513h-6.372c-1.685 0-3.241.899-4.083 2.358l-3.978 6.89 6.806 11.788c1.815 3.143 6.352 3.143 8.167 0l10.784-18.678c.842-1.459 2.399-2.358 4.083-2.358h6.372c6.911 0 12.513-5.602 12.513-12.513v-112.203c0-6.911-5.603-12.513-12.513-12.513z" fill="#c63d4f"/><g><path d="m504.5 320.389c4.143 0 7.5-3.357 7.5-7.5v-137.15c0-10.461-8.511-18.972-18.972-18.972h-22.488v-23.804c0-7.895-6.423-14.317-14.318-14.317h-96.718v-53.246c0-11.035-8.978-20.013-20.013-20.013h-40.686c-4.143 0-7.5 3.357-7.5 7.5s3.357 7.5 7.5 7.5h40.686c2.764 0 5.013 2.249 5.013 5.013v112.203c0 2.764-2.249 5.013-5.013 5.013h-6.372c-4.35 0-8.402 2.34-10.579 6.107l-8.372 14.501-8.371-14.499c-2.174-3.769-6.228-6.109-10.579-6.109h-193.2c-2.764 0-5.013-2.249-5.013-5.013v-112.203c0-2.764 2.249-5.013 5.014-5.013h166.8c4.143 0 7.5-3.357 7.5-7.5s-3.357-7.5-7.5-7.5h-166.8c-11.035 0-20.014 8.978-20.014 20.013v53.246h-26.227c-7.895 0-14.317 6.423-14.317 14.317v23.804h-22.488c-10.462.001-18.973 8.511-18.973 18.972v223.135c0 25.927 21.093 47.02 47.02 47.02h165.69c1.672 0 3.118 1.075 3.6 2.677.207.691.325.843 2.151 5.138 2.534 7.739 9.637 12.904 17.821 12.904h39.437c8.184 0 15.285-5.166 17.821-12.904 1.876-4.411 1.947-4.455 2.151-5.138.481-1.602 1.928-2.677 3.599-2.677h165.691c25.926 0 47.019-21.093 47.019-47.02v-55.999c0-4.143-3.357-7.5-7.5-7.5s-7.5 3.357-7.5 7.5v55.999c0 17.655-14.363 32.02-32.019 32.02h-165.691c-8.184 0-15.286 5.166-17.821 12.904l-1.861 4.341c-.28.654-.878 3.474-3.889 3.474h-39.437c-1.672 0-3.117-1.075-3.599-2.676-.204-.682-.265-.705-2.151-5.138-2.534-7.739-9.638-12.905-17.822-12.905h-165.69c-17.655 0-32.02-14.364-32.02-32.02v-223.135c0-2.19 1.782-3.972 3.973-3.972h22.488v216.4c0 7.895 6.423 14.317 14.317 14.317h38.996c4.143 0 7.5-3.357 7.5-7.5s-3.357-7.5-7.5-7.5h-38.313v-253.838h25.544v43.957c0 11.035 8.978 20.013 20.013 20.013h146.482v171.646c0 10.048-8.175 18.223-18.223 18.223h-105.516c-4.143 0-7.5 3.357-7.5 7.5s3.357 7.5 7.5 7.5h105.517c10.36 0 19.625-4.769 25.723-12.224 6.097 7.455 15.362 12.224 25.723 12.224h174.499c7.896 0 14.318-6.423 14.318-14.317v-216.4h22.488c2.19 0 3.972 1.781 3.972 3.972v137.149c-.001 4.142 3.356 7.5 7.499 7.5zm-48.96 67.096h-173.817c-10.048 0-18.223-8.175-18.223-18.223v-171.646h30.109l9.979 17.284c4.703 8.147 16.461 8.134 21.158.001l9.979-17.285h4.765c5.792 0 11.001-2.488 14.658-6.434h63.077c4.143 0 7.5-3.357 7.5-7.5s-3.357-7.5-7.5-7.5h-57.723v-42.536h96.036v253.839z"/><path d="m417.227 227.438h-115.414c-4.143 0-7.5 3.357-7.5 7.5s3.357 7.5 7.5 7.5h115.413c4.143 0 7.5-3.357 7.5-7.5s-3.357-7.5-7.499-7.5z"/><path d="m417.227 278.693h-115.414c-4.143 0-7.5 3.357-7.5 7.5s3.357 7.5 7.5 7.5h115.413c4.143 0 7.5-3.357 7.5-7.5s-3.357-7.5-7.499-7.5z"/><path d="m417.227 329.949h-115.414c-4.143 0-7.5 3.357-7.5 7.5s3.357 7.5 7.5 7.5h115.413c4.143 0 7.5-3.357 7.5-7.5s-3.357-7.5-7.499-7.5z"/><path d="m94.774 242.438h115.413c4.143 0 7.5-3.357 7.5-7.5s-3.357-7.5-7.5-7.5h-115.413c-4.143 0-7.5 3.357-7.5 7.5s3.358 7.5 7.5 7.5z"/><path d="m94.774 293.693h115.413c4.143 0 7.5-3.357 7.5-7.5s-3.357-7.5-7.5-7.5h-115.413c-4.143 0-7.5 3.357-7.5 7.5s3.358 7.5 7.5 7.5z"/><path d="m94.774 344.949h115.413c4.143 0 7.5-3.357 7.5-7.5s-3.357-7.5-7.5-7.5h-115.413c-4.143 0-7.5 3.357-7.5 7.5s3.358 7.5 7.5 7.5z"/><path d="m248.5 423.104v4.508c0 4.143 3.357 7.5 7.5 7.5s7.5-3.357 7.5-7.5v-4.508c0-4.143-3.357-7.5-7.5-7.5s-7.5 3.357-7.5 7.5z"/><path d="m156.944 92.659c-1.354-3.285-4.521-5.406-8.073-5.406h-.013c-3.558.005-6.726 2.136-8.07 5.429-.022.056-.044.11-.065.166l-20.391 53.537c-1.475 3.871.469 8.204 4.339 9.679 3.87 1.476 8.204-.468 9.679-4.339l3.239-8.504h22.408l3.201 8.482c1.464 3.88 5.794 5.829 9.665 4.368 3.875-1.462 5.831-5.789 4.368-9.665l-20.205-53.54c-.026-.069-.053-.138-.082-.207zm-13.642 35.562 5.542-14.552 5.492 14.552z"/><path d="m218.709 86.449h-15.773c-4.143 0-7.5 3.357-7.5 7.5v54.303c0 1.995.795 3.907 2.208 5.315 1.406 1.399 3.309 2.185 5.292 2.185h.033s14.498-.064 18.495-.064c12.195 0 22.116-9.922 22.116-22.117 0-6.725-3.021-12.754-7.773-16.814 1.826-3.016 2.897-6.537 2.897-10.312 0-11.026-8.97-19.996-19.995-19.996zm0 15c2.754 0 4.995 2.241 4.995 4.995s-2.241 4.995-4.995 4.995c-.107 0-.761-.001-8.273.015v-10.005zm2.755 39.239c-2.045 0-6.829.017-11.028.033v-14.257c4.405-.017 4.591-.005 11.028-.009 3.924 0 7.116 3.192 7.116 7.116s-3.192 7.117-7.116 7.117z"/><path d="m297.063 101.449c3.938 0 7.735 1.159 10.983 3.353 3.433 2.317 8.094 1.413 10.413-2.019 2.317-3.433 1.414-8.095-2.019-10.413-5.736-3.873-12.437-5.921-19.378-5.921-19.106 0-34.651 15.545-34.651 34.651s15.545 34.651 34.651 34.651c7.656 0 14.533-2.521 19.89-7.291 1.051-.937 2.048-1.965 2.964-3.057 2.66-3.175 2.243-7.905-.932-10.566-3.175-2.659-7.905-2.242-10.566.932-.448.536-.934 1.037-1.442 1.49-2.602 2.317-5.938 3.492-9.913 3.492-10.836 0-19.651-8.815-19.651-19.651s8.816-19.651 19.651-19.651z"/></g></g></svg>