<?xml version="1.0" encoding="iso-8859-1"?>
<!-- Generator: Adobe Illustrator 19.0.0, SVG Export Plug-In . SVG Version: 6.00 Build 0)  -->
<svg version="1.1" id="Capa_1" xmlns="http://www.w3.org/2000/svg" xmlns:xlink="http://www.w3.org/1999/xlink" x="0px" y="0px"
	 viewBox="0 0 496 496" style="enable-background:new 0 0 496 496;" xml:space="preserve">
<polygon style="fill:#333333;" points="440,496 397.784,496 359.04,472.752 335.584,480.568 184,413.2 184,363.008 79.608,243.704 
	72,251.312 72,269.576 136,365.576 136,424 99.056,424 80,385.888 80,374.248 51.056,367.008 32,338.424 32,314.424 16,290.424 
	16,241.888 0,209.888 0,152 50.072,152 122.072,192 168,192 168,208 117.928,208 45.928,168 16,168 16,206.112 32,238.112 
	32,285.576 48,309.576 48,333.576 60.944,352.992 96,361.752 96,382.112 108.944,408 120,408 120,370.424 56,274.424 56,244.688 
	80.392,220.296 200,356.992 200,402.8 336.416,463.432 360.96,455.248 402.216,480 424,480 424,473.888 416,457.888 416,424 
	464,424 464,414.112 480,382.112 480,344 475.312,344 435.312,384 344,384 344,336 371.72,336 400,293.576 400,280 363.88,280 
	337.472,243.024 350.488,233.728 372.12,264 416,264 416,298.424 380.28,352 360,352 360,368 428.688,368 468.688,328 496,328 
	496,385.888 480,417.888 480,440 432,440 432,454.112 440,470.112 "/>
<path style="fill:#FFA64D;" d="M264,336c-12.744,0-24.488-6.376-31.432-17.056l-75.888-116.76
	C143.152,181.376,136,157.248,136,132.432V128C136,57.424,193.424,0,264,0s128,57.424,128,128v4.432
	c0,24.824-7.152,48.944-20.68,69.76l-75.888,116.76C288.488,329.624,276.744,336,264,336z"/>
<g>
	<path style="fill:#333333;" d="M264,208c-44.112,0-80-35.888-80-80s35.888-80,80-80s80,35.888,80,80S308.112,208,264,208z M264,64
		c-35.288,0-64,28.712-64,64s28.712,64,64,64s64-28.712,64-64S299.288,64,264,64z"/>
	<path style="fill:#333333;" d="M232.64,121.592l-15.68-3.184C221.48,96.152,241.264,80,264,80v16
		C248.84,96,235.656,106.76,232.64,121.592z"/>
	<path style="fill:#333333;" d="M225.608,156.808c-4.256-5.656-7.24-12.296-8.64-19.208l15.68-3.176
		c0.944,4.656,2.88,8.952,5.752,12.776L225.608,156.808z"/>
</g>
<g>
</g>
<g>
</g>
<g>
</g>
<g>
</g>
<g>
</g>
<g>
</g>
<g>
</g>
<g>
</g>
<g>
</g>
<g>
</g>
<g>
</g>
<g>
</g>
<g>
</g>
<g>
</g>
<g>
</g>
</svg>
