<svg height="437pt" viewBox="0 -7 437.62264 437" width="437pt" xmlns="http://www.w3.org/2000/svg"><path d="m133.65625 342.851562-8 56-24-24-24 40-8-24-48 24 24-40-24-8 32-24-32-24 72-16zm0 0" fill="#fecf2c"/><g fill="#168de2"><path d="m161.65625 330.851562-20 20-56-56 20-20zm0 0"/><path d="m221.65625 308.289062v82.5625l-48-48zm0 0"/><path d="m134.9375 222.851562-33.28125 48-48-48zm0 0"/></g><path d="m134.9375 222.851562 4.398438-6.402343c68.003906-98.261719 172.589843-165.125 290.320312-185.597657l-10.398438 31.277344c-29.636718 88.898438-86.511718 166.207032-162.5625 220.960938l-35.039062 25.199218-48 34.5625-72-72zm0 0" fill="#ee3446"/><path d="m180.921875 164.761719h-.570313c-2.316406-.167969-4.445312-1.335938-5.832031-3.199219l-33.941406-45.257812c-.289063-.378907-.539063-.789063-.753906-1.214844l-11.320313-22.632813c-1.535156-3.078125-.929687-6.796875 1.503906-9.230469l16.976563-16.96875c2.140625-2.140624 5.308594-2.890624 8.183594-1.933593l16.976562 5.644531c1.496094.5 2.8125 1.433594 3.777344 2.679688l39.589844 50.921874c2.476562 3.183594 2.195312 7.714844-.65625 10.566407l-28.277344 28.28125c-1.5 1.5-3.535156 2.34375-5.65625 2.34375zm0 0" fill="#168de2"/><path d="m297.136719 209.785156c-1.847657.003906-3.640625-.636718-5.0625-1.816406l-60-49.09375h-41.945313l16-16h28.800782c1.84375 0 3.632812.636719 5.0625 1.808594l56.617187 46.328125 11.863281-11.859375 11.3125 11.320312-16.976562 16.96875c-1.503906 1.503906-3.542969 2.347656-5.671875 2.34375zm0 0" fill="#4e4e4e"/><path d="m101.730469 190.707031-11.273438-11.3125 9.328125-9.328125 5.34375-48.128906c.136719-1.269531.582032-2.488281 1.296875-3.550781l22.621094-33.945313 13.3125 8.871094-21.542969 32.320312-5.441406 48.984376c-.195312 1.816406-1.003906 3.511718-2.292969 4.800781zm0 0" fill="#168de2"/><path d="m203.542969 96.882812c-.855469 0-1.710938-.136718-2.527344-.410156l-33.933594-11.300781 5.0625-15.203125 31.046875 10.402344 36.800782-15.769532c1.800781-.773437 3.820312-.855468 5.679687-.238281l16.976563 5.605469-5.0625 15.203125-14.089844-4.691406-36.800782 15.769531c-.996093.421875-2.066406.636719-3.152343.632812zm0 0" fill="#168de2"/><path d="m118.695312 69.96875c-15.265624.003906-28.40625-10.777344-31.390624-25.75-2.980469-14.972656 5.03125-29.964844 19.132812-35.808594 14.105469-5.847656 30.371094-.914062 38.855469 11.777344s6.820312 29.609375-3.972657 40.40625c-5.984374 6.023438-14.132812 9.398438-22.625 9.375zm0 0" fill="#eecfb1"/><path d="m118.695312 69.96875c15.265626-.003906 28.402344-10.789062 31.378907-25.761719 2.976562-14.972656-5.039063-29.960937-19.144531-35.800781-14.101563-5.839844-30.367188-.90625-38.847657 11.785156s-6.816406 29.605469 3.976563 40.402344c5.988281 6.027344 14.140625 9.402344 22.636718 9.375zm-11.3125-43.308594c4.019532-4.160156 9.96875-5.828125 15.5625-4.363281 5.59375 1.460937 9.960938 5.832031 11.425782 11.425781s-.203125 11.542969-4.363282 15.558594c-6.328124 6.046875-16.292968 6.046875-22.625 0-6.246093-6.246094-6.246093-16.375 0-22.621094zm0 0"/><path d="m348.335938 153.761719-13.359376-8.800781c-2.542968 3.867187-5.15625 7.683593-7.839843 11.449218l13.039062 9.265625c2.796875-3.921875 5.515625-7.890625 8.160157-11.914062zm0 0"/><path d="m387.488281 78.96875-14.839843-5.964844c-8.296876 20.636719-18.273438 40.5625-29.824219 59.574219l13.664062 8.320313c12.015625-19.757813 22.382813-40.46875 31-61.929688zm0 0"/><path d="m360 272.316406 64.003906-64.003906 11.3125 11.316406-64 64zm0 0"/><path d="m328.003906 304.308594 15.996094-15.996094 11.316406 11.3125-16 16zm0 0"/><path d="m248 336.3125 32-32.003906 11.316406 11.316406-32.003906 32zm0 0"/><path d="m272 16.308594 15.996094-15.996094 11.3125 11.3125-15.996094 15.996094zm0 0"/><path d="m46.667969 125.648438 40-40 11.3125 11.3125-40 40zm0 0"/><path d="m43.3125 275.625 25.894531-25.894531 25.136719 25.144531-14.34375 14.34375c-2.300781 2.34375-2.933594 5.855469-1.597656 8.855469l-58.480469 12.992187c-3.050781.679688-5.425781 3.070313-6.085937 6.121094-.65625 3.054688.523437 6.210938 3.019531 8.085938l23.464843 17.601562-23.464843 17.597656c-2.378907 1.785156-3.574219 4.746094-3.097657 7.683594.476563 2.941406 2.546876 5.371094 5.371094 6.308594l14.535156 4.839844-18.863281 31.464843c-1.808593 3.042969-1.40625 6.914063.996094 9.515625 2.398437 2.601563 6.226563 3.316406 9.402344 1.757813l39.753906-19.871094 5.085937 15.246094c1 2.9375 3.609376 5.035156 6.691407 5.378906 3.085937.34375 6.089843-1.128906 7.710937-3.777344l18.726563-31.203125 16.761719 16.753906c2.140624 2.15625 5.320312 2.914063 8.203124 1.953126 2.882813-.960938 4.976563-3.472657 5.394532-6.480469l5.9375-41.542969c.691406.230469 1.414062.371094 2.144531.414062 2.121094 0 4.15625-.84375 5.65625-2.34375l14.390625-14.382812 54.34375 54.34375c2.289062 2.285156 5.730469 2.96875 8.71875 1.734375 2.988281-1.238281 4.9375-4.15625 4.9375-7.390625v-78.464844l31.71875-22.839844c77.53125-55.59375 135.449219-134.324218 165.441406-224.886718l10.398438-31.28125c.886718-2.667969.304687-5.605469-1.527344-7.734375-1.835938-2.132813-4.652344-3.144531-7.421875-2.664063-78.6875 13.90625-152.339844 48.230469-213.601563 99.535156l-22.550781-29.007812 8.871094 2.960938c.816406.269531 1.667969.40625 2.527344.40625 1.085937 0 2.15625-.21875 3.152343-.648438l36.800782-15.769531 14.085937 4.691406 5.066407-15.203125-16.960938-5.644531c-1.859375-.621094-3.878906-.535157-5.679688.238281l-36.800781 15.769531-31.03125-10.363281-16.976562-5.65625c-2.875-.953125-6.042969-.203125-8.183594 1.9375l-16.976563 16.96875c-.351562.386719-.660156.816406-.917968 1.273438l-.082032-.058594-22.625 33.945312c-.710937 1.0625-1.15625 2.28125-1.292968 3.550782l-5.34375 48.128906-9.289063 9.335937 11.3125 11.3125 11.3125-11.3125c1.289063-1.292969 2.097657-2.984375 2.292969-4.800781l5.441406-48.984375 13.894532-20.847656 5.152343 10.304687c.214844.425782.464844.835938.753907 1.214844l33.421874 44.5625c-14.96875 15.972656-28.746093 33.019531-41.222656 51.007812l-2.078125 3h-77.082031c-3.234375 0-6.152344 1.949219-7.390625 4.9375-1.238281 2.988282-.550781 6.429688 1.734375 8.71875l9.898438 9.886719-25.898438 25.894531zm64 93.601562c-1.742188-1.742187-4.1875-2.582031-6.628906-2.28125-2.445313.296876-4.613282 1.707032-5.882813 3.816407l-15.054687 25.089843-2.503906-7.503906c-.734376-2.199218-2.386719-3.972656-4.527344-4.859375s-4.5625-.800781-6.632813.234375l-23.433593 11.71875 9.863281-16.445312c1.25-2.082032 1.484375-4.617188.644531-6.890625-.84375-2.277344-2.671875-4.046875-4.972656-4.816407l-9.511719-3.199218 19.785156-14.816406c2.015625-1.511719 3.199219-3.882813 3.199219-6.398438 0-2.519531-1.183594-4.890625-3.199219-6.402344l-18.082031-13.597656 50.730469-11.273438 34.0625 34.066407-5.167969 36.207031zm34.34375-29.65625-44.6875-44.6875 8.6875-8.695312 44.6875 44.6875zm72 32-27.695312-27.695312 27.695312-19.945312zm-68.253906-281.105468 9.398437-9.398438 9.984375 3.328125 33.765625 43.414063-16.796875 16.800781-28-37.296875zm52.878906 68.410156h33.777344l60 49.09375c3.175781 2.605469 7.808594 2.375 10.71875-.527344l16.976562-16.96875-11.296875-11.320312-11.863281 11.859375-56.617188-46.328125c-1.429687-1.171875-3.21875-1.808594-5.0625-1.808594h-19.546874c57.476562-50.902344 127.242187-85.925781 202.402343-101.601562l-6.113281 18.34375c-28.933594 87.371093-84.808594 163.328124-159.597656 216.96875l-77.5625 55.785156-62.4375-62.402344 33.894531-48.957031c15.457031-22.304688 32.976563-43.109375 52.328125-62.136719zm-78.664062 72-19.082032 27.558594-27.566406-27.558594zm0 0"/><path d="m0 296.3125 15.996094-16 11.316406 11.316406-16 15.996094zm0 0"/><path d="m216 224.308594 32-32 11.316406 11.316406-32.003906 32zm0 0"/><path d="m184 256.3125 15.996094-16 11.316406 11.316406-16 15.996094zm0 0"/></svg>