<svg height="512pt" viewBox="-52 0 512 512" width="512pt" xmlns="http://www.w3.org/2000/svg"><path d="m173.277344 315.90625h60.445312v96.714844h-60.445312zm0 0" fill="#e8916f"/><path d="m94.695312 228.863281v-81.078125c0-56.710937 45.972657-102.683594 102.683594-102.683594h12.242188c56.710937 0 102.683594 45.972657 102.683594 102.683594v81.078125c0 60.089844-48.710938 108.800781-108.804688 108.800781-60.089844.003907-108.804688-48.710937-108.804688-108.800781zm0 0" fill="#ebad88"/><path d="m209.621094 45.105469h-12.242188c-4.066406 0-35.75 46.246093-39.695312 46.707031-4.066406 35.003906 18.144531 54.839844 56.34375 69.59375 21 8.113281 34.808594 28.363281 34.808594 50.875v16.582031c0 53.910157-12.011719 98.65625-63.46875 107.289063 5.898437.992187 11.953124 1.515625 18.132812 1.515625 60.089844 0 108.804688-48.714844 108.804688-108.804688v-81.078125c0-56.710937-45.972657-102.679687-102.683594-102.679687zm0 0" fill="#e8916f"/><path d="m315.488281 504.5h-223.976562v-80.1875c0-15.464844 12.535156-28.003906 28-28.003906h167.976562c15.464844 0 28.003907 12.539062 28.003907 28.003906v80.1875zm0 0" fill="#ba68c8"/><path d="m287.488281 396.308594h-30.003906c15.464844 0 28.003906 12.539062 28.003906 28v80.191406h30v-80.191406c0-15.460938-12.535156-28-28-28zm0 0" fill="#ab47bc"/><path d="m143.5 366.308594h120v30h-120zm0 0" fill="#fdd835"/><path d="m233.5 366.308594h30v30h-30zm0 0" fill="#fbc02d"/><path d="m72.691406 504.5h-46.375c-10.390625 0-18.816406-8.425781-18.816406-18.816406v-52.367188c0-10.390625 8.425781-18.816406 18.816406-18.816406h46.375c10.394532 0 18.820313 8.421875 18.820313 18.816406v52.367188c0 10.390625-8.425781 18.816406-18.820313 18.816406zm0 0" fill="#ba68c8"/><path d="m72.691406 414.5h-30.003906c10.394531 0 18.820312 8.425781 18.820312 18.816406v52.367188c0 10.394531-8.425781 18.816406-18.820312 18.816406h30.003906c10.394532 0 18.820313-8.425781 18.820313-18.816406v-52.367188c0-10.390625-8.425781-18.816406-18.820313-18.816406zm0 0" fill="#ab47bc"/><path d="m380.683594 504.5h-46.375c-10.394532 0-18.820313-8.425781-18.820313-18.816406v-52.367188c0-10.390625 8.425781-18.816406 18.820313-18.816406h46.375c10.390625 0 18.816406 8.421875 18.816406 18.816406v52.367188c0 10.390625-8.425781 18.816406-18.816406 18.816406zm0 0" fill="#ab47bc"/><path d="m380.683594 414.5h-30.003906c10.390624 0 18.816406 8.425781 18.816406 18.816406v52.367188c0 10.394531-8.425782 18.816406-18.816406 18.816406h30.003906c10.390625 0 18.816406-8.425781 18.816406-18.816406v-52.367188c0-10.390625-8.425781-18.816406-18.816406-18.816406zm0 0" fill="#9c27b0"/><path d="m218.5 452.335938c0-11.046876-6.714844-20-15-20s-15 8.953124-15 20c0 11.042968 6.714844 20 15 20s15-8.957032 15-20zm0 0" fill="#ffee58"/><path d="m274.488281 337.667969h-141.976562c-6.625 0-12-5.375-12-12v-80.585938c0-6.628906 5.375-12 12-12h141.976562c6.625 0 12 5.371094 12 12v80.585938c0 6.625-5.375 12-12 12zm0 0" fill="#ebe4e2"/><path d="m259.675781 50.886719c0-23.960938-25.191406-43.386719-56.265625-43.386719-31.074218 0-56.265625 19.425781-56.265625 43.386719 0 23.964843 25.191407 43.390625 56.265625 43.390625 31.074219 0 56.265625-19.425782 56.265625-43.390625zm0 0" fill="#5e3920"/><path d="m332.296875 137.019531c0 20.40625-6.058594 38.191407-11.683594 50.308594-3.808593 8.203125-14.980469 9.394531-20.457031 2.191406l-13.671875-17.988281c-9.828125-12.929688-25.253906-20.367188-41.492187-19.984375-11.070313.261719-25.179688.480469-41.25.480469-16.066407 0-30.175782-.21875-41.242188-.480469-16.234375-.382813-31.65625 7.050781-41.488281 19.976563l-13.683594 17.996093c-5.472656 7.203125-16.648437 6.007813-20.457031-2.195312-5.617188-12.117188-11.671875-29.902344-11.671875-50.300781 0-88.691407 81.851562-99.253907 128.539062-99.253907 46.691407 0 128.558594 10.5625 128.558594 99.25zm0 0" fill="#734528"/><path d="m203.742188 37.769531c-6.273438 0-13.183594.191407-20.445313.738281 46.769531 3.511719 108.109375 21.738282 108.109375 98.511719 0 12.546875-2.292969 24.101563-5.367188 33.957031.148438.1875.304688.363282.445313.550782l13.675781 17.992187c5.472656 7.203125 16.644532 6.011719 20.453125-2.195312 5.625-12.113281 11.683594-29.902344 11.683594-50.304688 0-88.6875-81.863281-99.25-128.554687-99.25zm0 0" fill="#5e3920"/><path d="m380.683594 407h-46.375c-5.105469 0-9.875 1.460938-13.914063 3.984375-5.28125-12.988281-18.039062-22.171875-32.90625-22.171875h-16.488281v-22.5c0-4.144531-3.355469-7.5-7.5-7.5h-22.277344v-13.644531h33.265625c10.75 0 19.5-8.75 19.5-19.5v-23.753907c14.003907-17.332031 22.699219-38.339843 25.117188-60.390624l3.878906-1.371094c3.90625-1.378906 5.953125-5.660156 4.574219-9.566406-1.164063-3.308594-4.417969-5.28125-7.757813-4.972657v-26.617187c3.273438-1.964844 5.933594-4.890625 7.617188-8.511719 5.644531-12.164063 12.378906-31.316406 12.378906-53.464844 0-41.816406-17.089844-71.941406-50.800781-89.53125-7.226563-3.773437-15.191406-6.929687-23.871094-9.46875-7.1875-22.265625-32.351562-38.019531-61.714844-38.019531-29.527344 0-54.707031 15.839844-61.796875 38.238281-10.632812 3.171875-20.1875 7.28125-28.621093 12.324219-3.554688 2.125-4.714844 6.730469-2.589844 10.285156 2.128906 3.558594 6.734375 4.714844 10.285156 2.589844 20.164062-12.054688 48.105469-18.167969 83.054688-18.167969 32.238281 0 58.585937 5.21875 78.316406 15.515625 28.359375 14.800782 42.738281 40.449219 42.738281 76.238282 0 19.40625-5.976563 36.351562-10.984375 47.144531-1.441406 3.105469-5.648438 3.496093-7.683594.8125l-13.675781-17.988281c-11.242187-14.792969-29.046875-23.386719-47.636719-22.945313-26.953125.636719-55.175781.636719-82.140625 0-18.585937-.4375-36.378906 8.136719-47.632812 22.9375l-13.683594 17.996094c-2.058594 2.710937-6.257813 2.261719-7.683594-.816407-5.007812-10.792968-10.976562-27.734374-10.976562-47.140624 0-22.136719 5.46875-40.488282 16.253906-54.542969 2.523437-3.285157 1.902344-7.992188-1.382813-10.515625-3.289062-2.523438-7.996093-1.902344-10.515624 1.386718-12.84375 16.734376-19.355469 38.15625-19.355469 63.671876 0 22.140624 6.726562 41.289062 12.367187 53.453124 1.597656 3.441407 4.078125 6.253907 7.128906 8.210938v26.925781c-3.339843-.3125-6.59375 1.664063-7.757812 4.972657-1.378906 3.90625.667969 8.1875 4.574219 9.566406l3.875 1.371094c2.421875 22.054687 11.117187 43.066406 25.121093 60.402343v23.742188c0 10.75 8.75 19.5 19.5 19.5h33.265626v13.644531h-22.273438c-4.144531 0-7.5 3.355469-7.5 7.5v22.5h-16.488281c-14.867188 0-27.625 9.183594-32.90625 22.171875-4.039063-2.523437-8.808594-3.984375-13.910157-3.984375h-46.378906c-14.511718 0-26.316406 11.804688-26.316406 26.316406v52.367188c0 14.511718 11.804688 26.316406 26.316406 26.316406h46.375c4.582032 0 8.890625-1.175781 12.644532-3.242188 1.351562 1.960938 3.613281 3.242188 6.175781 3.242188h47.738281c4.144531 0 7.5-3.355469 7.5-7.5s-3.355469-7.5-7.5-7.5h-40.238281v-72.6875c0-11.304688 9.195312-20.5 20.5-20.5h21.910156l46.84375 28.121094c-4.488281 4.996094-7.265625 12.230468-7.265625 20.402344 0 15.421874 9.882812 27.5 22.5 27.5s22.5-12.078126 22.5-27.5c0-8.171876-2.773438-15.40625-7.261719-20.402344l46.839844-28.121094h21.910156c11.308594 0 20.503907 9.195312 20.503907 20.5v72.6875h-136.492188c-4.144531 0-7.5 3.355469-7.5 7.5s3.355469 7.5 7.5 7.5h143.988281c2.5625 0 4.824219-1.28125 6.175781-3.242188 3.753907 2.066407 8.0625 3.242188 12.644532 3.242188h46.375c14.511718 0 26.316406-11.804688 26.316406-26.316406v-52.367188c0-14.511718-11.804688-26.316406-26.316406-26.316406zm-220.078125-373.222656c8.390625-11.234375 24.691406-18.777344 42.804687-18.777344 18 0 34.253906 7.488281 42.683594 18.640625-12.90625-2.242187-27.042969-3.371094-42.351562-3.371094-15.628907 0-30.027344 1.171875-43.136719 3.507813zm-87.914063 463.222656h-46.375c-6.242187 0-11.316406-5.074219-11.316406-11.316406v-52.367188c0-6.238281 5.074219-11.316406 11.316406-11.316406h46.375c6.242188 0 11.316406 5.078125 11.316406 11.316406v4.179688h-27.457031c-4.144531 0-7.5 3.355468-7.5 7.5 0 4.140625 3.355469 7.5 7.5 7.5h27.457031v14.011718h-27.457031c-4.144531 0-7.5 3.355469-7.5 7.5 0 4.140626 3.355469 7.5 7.5 7.5h27.457031v4.175782c.003907 6.242187-5.074218 11.316406-11.316406 11.316406zm97.871094-93.1875h65.875l-32.9375 19.773438zm123.425781-129.417969v-24.007812l9.140625-3.226563c-1.738281 9.476563-4.824218 18.648438-9.140625 27.234375zm-190.121093-27.234375 9.144531 3.226563v24.015625c-4.316407-8.585938-7.402344-17.765625-9.144531-27.242188zm24.144531 78.507813v-80.433594c.003906-.085937.003906-.167969.003906-.25.050781-2.4375 2.046875-4.402344 4.496094-4.402344h91.15625c4.140625 0 7.5-3.355469 7.5-7.5 0-4.140625-3.359375-7.5-7.5-7.5h-91.15625c-7.226563 0-13.546875 3.953125-16.917969 9.8125l-13.375-4.722656c-.03125-1.703125-.011719-.785156-.019531-29.398437 4.363281-1.003907 8.28125-3.503907 11.101562-7.214844l13.683594-17.996094c8.351563-10.980469 21.601563-17.347656 35.339844-17.019531 27.199219.644531 55.65625.644531 82.847656 0 13.78125-.324219 26.992187 6.039062 35.34375 17.023437l13.671875 17.992188c2.714844 3.570312 6.449219 6.019531 10.613281 7.09375-.003906 29.40625.011719 27.894531-.015625 29.519531l-13.378906 4.71875c-3.367188-5.855469-9.691406-9.808594-16.917969-9.808594h-19.488281c-4.144531 0-7.5 3.355469-7.5 7.5 0 4.140625 3.355469 7.5 7.5 7.5h19.488281c2.445313 0 4.445313 1.964844 4.496094 4.398438 0 .085937 0 .167969.003906.25v80.433593c0 2.480469-2.019531 4.5-4.5 4.5h-141.976562c-2.480469.003907-4.5-2.015624-4.5-4.496093zm52.765625 19.5h45.445312v13.644531h-45.445312zm-29.777344 28.644531h105v15h-105zm52.5 91.023438c-3.539062 0-7.5-5.347657-7.5-12.5 0-7.15625 3.960938-12.5 7.5-12.5s7.5 5.34375 7.5 12.5c0 7.152343-3.960938 12.5-7.5 12.5zm188.5 20.847656c0 6.242187-5.074219 11.316406-11.316406 11.316406h-46.375c-6.242188 0-11.316406-5.074219-11.316406-11.316406v-3.96875h27.308593c4.140625 0 7.5-3.359375 7.5-7.5 0-4.144532-3.359375-7.5-7.5-7.5h-27.3125v-14.011719h27.308594c4.144531 0 7.5-3.359375 7.5-7.5 0-4.144531-3.355469-7.5-7.5-7.5h-27.308594v-4.386719c0-6.242187 5.078125-11.316406 11.316407-11.316406h46.378906c6.238281 0 11.316406 5.074219 11.316406 11.316406zm0 0"/><path d="m182.09375 317.828125 21.84375-21.847656 21.847656 21.847656c2.933594 2.929687 7.679688 2.929687 10.609375 0 2.925781-2.929687 2.925781-7.679687 0-10.605469l-21.847656-21.847656 21.847656-21.847656c2.925781-2.929688 2.925781-7.679688 0-10.605469-2.929687-2.929687-7.679687-2.929687-10.609375 0l-21.847656 21.84375-21.84375-21.84375c-2.933594-2.929687-7.679688-2.929687-10.609375 0s-2.929687 7.675781 0 10.605469l21.847656 21.847656-21.847656 21.847656c-2.929687 2.929688-2.929687 7.675782 0 10.605469s7.675781 2.929687 10.609375 0zm0 0"/></svg>