<svg id="Capa_1" enable-background="new 0 0 512 512" height="512" viewBox="0 0 512 512" width="512" xmlns="http://www.w3.org/2000/svg"><g><g><path d="m488.569 241.399c3.932 1.039 5.336 5.894 2.564 8.871-19.728 21.185-87.152 86.622-167.294 86.622s-147.566-65.437-167.294-86.622c-2.772-2.976-1.367-7.831 2.564-8.871 22.521-5.953 87.76-21.214 164.73-21.214s142.21 15.261 164.73 21.214z" fill="#335995"/></g><g><path d="m488.569 241.399c-9.516-2.516-26.659-6.693-49.091-10.678-33.34 31.992-99.167 85.024-176.764 94.137 19.008 7.312 39.607 12.034 61.126 12.034 80.142 0 147.566-65.437 167.294-86.622 2.771-2.977 1.367-7.832-2.565-8.871z" fill="#21386b"/></g><g><path d="m323.84 261.288c61.78 0 166.71-30.825 164.918-31.299-22.546-5.96-87.86-21.238-164.918-21.238s-142.372 15.279-164.918 21.238c-1.792.473 103.138 31.299 164.918 31.299z" fill="#f4fbff"/></g><g><path d="m488.758 229.989c-9.167-2.423-25.403-6.387-46.623-10.237-29.458 10.921-101.135 34.891-148.648 38.586-1.907.148-3.859.27-5.849.367 12.869 1.605 25.219 2.582 36.203 2.582 61.778.001 166.708-30.825 164.917-31.298z" fill="#e4f6ff"/></g><g><path d="m421.313 345.533c-.143-29.707-24.264-53.747-54.005-53.747-14.201 0-27.118 5.483-36.758 14.445-3.785 3.519-9.637 3.519-13.422 0-9.64-8.962-22.557-14.445-36.758-14.445-29.741 0-53.862 24.04-54.005 53.747z" fill="#da387d"/></g><g><g><path d="m367.309 291.786c-6.351 0-12.442 1.104-18.101 3.118 20.844 7.416 35.791 27.265 35.904 50.629h36.202c-.144-29.707-24.265-53.747-54.005-53.747z" fill="#b94029"/></g></g><g><path d="m500.252 230.363c-10.657-10.354-35.747-31.363-76.548-46.312-29.491-10.805-62.427-6.333-88.099 11.761l-3.7 2.608c-4.837 3.41-11.296 3.41-16.133 0l-3.7-2.608c-25.672-18.095-58.608-22.567-88.099-11.761-40.801 14.949-65.891 35.958-76.547 46.312-3.829 3.72-5.206 9.28-3.561 14.359 10.433 32.206 56.903 149.606 179.973 149.606s169.54-117.399 179.973-149.606c1.647-5.079.27-10.639-3.559-14.359zm-21.314 21.967c-18.29 19.64-80.799 80.307-155.099 80.307s-136.809-60.667-155.098-80.307c-2.57-2.759-1.268-7.26 2.378-8.224 20.879-5.519 81.362-19.668 152.721-19.668s131.843 14.149 152.721 19.668c3.645.964 4.947 5.465 2.377 8.224z" fill="#dd5790"/></g><g><g><path d="m500.252 230.363c-10.657-10.355-35.747-31.363-76.548-46.312-17.884-6.553-37.033-7.477-55.062-3.162 3.531.849 7.034 1.897 10.488 3.162 40.801 14.949 65.891 35.958 76.548 46.312 2.668 2.592 4.141 6.077 4.235 9.67 6.927 1.575 12.552 2.99 16.648 4.073 3.645.964 4.947 5.465 2.378 8.224-6.813 7.316-19.764 20.324-37.172 33.769-22.017 42.25-64.795 97.631-140.214 106.889 7.134.876 14.559 1.34 22.287 1.34 123.07 0 169.54-117.399 179.973-149.606 1.645-5.079.268-10.639-3.561-14.359z" fill="#da387d"/></g></g><g><path d="m68.03 320.721c1.013 0 2.041-.207 3.027-.643 3.782-1.673 5.492-6.097 3.818-9.879-9.431-21.311-14.213-44.016-14.213-67.486 0-23.469 4.782-46.174 14.213-67.485 1.674-3.783-.036-8.206-3.818-9.879-3.781-1.671-8.205.035-9.879 3.818-10.281 23.232-15.494 47.976-15.494 73.547s5.213 50.316 15.494 73.548c1.238 2.795 3.979 4.459 6.852 4.459z"/><path d="m25.266 334.578c1.013 0 2.041-.207 3.027-.643 3.782-1.674 5.492-6.097 3.818-9.879-11.368-25.687-17.132-53.055-17.132-81.344 0-10.416.804-20.877 2.39-31.093.635-4.087-2.164-7.914-6.252-8.549-4.084-.633-7.915 2.164-8.549 6.252-1.704 10.974-2.568 22.208-2.568 33.391 0 30.39 6.195 59.797 18.413 87.406 1.238 2.796 3.979 4.459 6.853 4.459z"/><path d="m15.487 184.836c.775.254 1.561.374 2.334.374 3.15 0 6.081-2.003 7.115-5.16 2.07-6.317 4.484-12.602 7.175-18.682 1.674-3.782-.035-8.205-3.817-9.879-3.783-1.671-8.205.035-9.88 3.818-2.892 6.534-5.487 13.29-7.711 20.08-1.289 3.931.853 8.162 4.784 9.449z"/><path d="m113.651 189.665c-3.828-1.558-8.201.275-9.764 4.104-6.351 15.561-9.572 32.028-9.572 48.943s3.22 33.382 9.572 48.944c1.185 2.903 3.983 4.661 6.937 4.661.942 0 1.901-.179 2.827-.557 3.829-1.563 5.667-5.935 4.104-9.764-5.614-13.756-8.461-28.319-8.461-43.284s2.846-29.527 8.461-43.283c1.563-3.829-.275-8.2-4.104-9.764z"/><path d="m169.204 236.866c-4.281 1.131-7.571 4.346-8.8 8.6-1.23 4.254-.162 8.728 2.856 11.969 18.065 19.399 83.035 82.692 160.579 82.692s142.513-63.293 160.579-82.692c0 0 .001 0 .001-.001 3.017-3.24 4.085-7.714 2.855-11.967-1.23-4.255-4.519-7.47-8.8-8.601-22.653-5.988-83.068-19.916-154.635-19.916-71.567-.001-131.982 13.927-154.635 19.916zm252.106 3.254c-29.435 6.528-68.327 13.678-97.471 13.678-29.177 0-68.264-7.212-97.457-13.681 26.936-4.42 60.68-8.19 97.457-8.19 36.784 0 70.533 3.771 97.471 8.193zm-167.365 67.391c7.711-5.347 16.846-8.236 26.425-8.236 11.786 0 23.029 4.418 31.659 12.442 6.621 6.157 16.998 6.156 23.621-.001 8.628-8.023 19.872-12.441 31.658-12.441 9.478 0 18.696 2.939 26.404 8.246-21.05 10.3-44.822 17.626-69.874 17.626-25.058.001-48.838-7.33-69.893-17.636zm154.173-7.705c-11.191-9.914-25.755-15.509-40.809-15.509-15.583 0-30.449 5.842-41.857 16.45-.905.841-2.319.841-3.224 0-11.41-10.608-26.275-16.45-41.857-16.45-15.194 0-29.551 5.486-40.813 15.507-29.03-16.903-51.393-38.053-62.436-49.516 3.699-.94 8.118-2.011 13.157-3.152 32.285 8.117 93.387 21.641 133.561 21.641 40.453 0 100.254-13.48 132.992-21.77 5.282 1.19 9.886 2.306 13.726 3.282-11.044 11.462-33.408 32.614-62.44 49.517z"/><path d="m505.471 224.992c-7.758-7.539-24.659-22.178-50.675-35.519-3.678-1.887-8.194-.434-10.081 3.247-1.887 3.68-.434 8.193 3.247 10.081 24.279 12.451 39.913 25.977 47.071 32.934 1.791 1.74 2.425 4.299 1.654 6.679-10.974 33.881-55.873 144.424-172.848 144.424-18.759 0-36.694-2.885-53.308-8.576-3.914-1.338-8.173.744-9.513 4.658-1.34 3.913.746 8.172 4.658 9.513 18.181 6.226 37.749 9.384 58.163 9.384 54.741 0 101.149-21.993 137.937-65.37 29.493-34.777 44.204-74.117 49.16-89.415 2.544-7.85.449-16.294-5.465-22.04z"/><path d="m240.552 364.206c-57.874-35.132-83.182-102.103-89.561-121.792-.771-2.379-.137-4.939 1.655-6.68 10.843-10.536 34.863-30.348 73.905-44.652 27.114-9.935 57.473-5.88 81.208 10.851l3.699 2.607c7.404 5.22 17.358 5.221 24.762.001l3.701-2.609c22.282-15.705 51.052-20.299 76.954-12.286 3.957 1.224 8.145-.991 9.368-4.941 1.222-3.951-.99-8.145-4.941-9.368-30.308-9.375-63.957-4.01-90.01 14.352l-3.701 2.609c-2.243 1.582-5.259 1.583-7.504-.001l-3.699-2.607c-27.752-19.561-63.264-24.299-94.99-12.672-41.65 15.26-67.492 36.607-79.19 47.973-5.914 5.746-8.008 14.19-5.466 22.038 8.691 26.828 35.446 93.199 96.038 129.98 1.214.737 2.555 1.088 3.879 1.088 2.531 0 5-1.282 6.409-3.604 2.146-3.535 1.02-8.14-2.516-10.287z"/><path d="m189.609 100.187 7.276 19.282c1.461 3.868 5.782 5.822 9.651 4.362 3.87-1.46 5.823-5.781 4.363-9.651l-36.558-96.874c-.026-.068-.053-.137-.081-.206-1.505-3.657-5.03-6.018-8.985-6.018-.003 0-.007 0-.011 0-3.958.004-7.484 2.374-8.983 6.038-.023.056-.045.112-.067.17l-36.894 96.869c-1.472 3.865.468 8.191 4.333 9.664.878.334 1.778.492 2.664.492 3.018 0 5.862-1.837 7-4.826l7.351-19.302zm-24.357-64.543 18.705 49.565h-37.582z"/><path d="m104.316 397.229h-14.188l7.012-33.732c.842-4.05-1.759-8.015-5.808-8.856-4.046-.846-8.015 1.758-8.857 5.808l-7.645 36.781h-15.492l7.012-33.732c.842-4.05-1.759-8.015-5.808-8.856-4.048-.846-8.014 1.758-8.857 5.808l-7.645 36.781h-17.266c-4.136 0-7.489 3.353-7.489 7.489 0 4.137 3.353 7.489 7.489 7.489h14.152l-6.289 30.255h-17.216c-4.136 0-7.489 3.353-7.489 7.489 0 4.137 3.353 7.489 7.489 7.489h14.102l-7.163 34.459c-.842 4.05 1.759 8.015 5.808 8.856 3.947.854 8.033-1.731 8.857-5.808l7.796-37.507h15.491l-7.163 34.459c-.842 4.05 1.759 8.015 5.808 8.856 3.947.854 8.033-1.731 8.857-5.808l7.796-37.507h17.35c4.136 0 7.489-3.353 7.489-7.489 0-4.137-3.353-7.489-7.489-7.489h-14.235l6.289-30.255h17.301c4.136 0 7.489-3.353 7.489-7.489.001-4.139-3.352-7.491-7.488-7.491zm-38.89 45.233h-15.491l6.289-30.255h15.491z"/><ellipse cx="146.465" cy="443.429" rx="6.536" ry="6.536" transform="matrix(.099 -.995 .995 .099 -309.238 545.487)"/><path d="m339.853 154.227c-3.61 0-6.536 2.926-6.536 6.536s2.926 6.536 6.536 6.536 6.536-2.926 6.536-6.536-2.926-6.536-6.536-6.536z"/><path d="m146.561 325.731c-4.136 0-7.489 3.353-7.489 7.489v83.679c0 4.137 3.353 7.489 7.489 7.489s7.489-3.353 7.489-7.489v-83.679c0-4.137-3.353-7.489-7.489-7.489z"/><path d="m312.371 86.006c4.137 0 7.489-3.353 7.489-7.489 0-.94.064-1.882.192-2.798 1.378-9.87 9.855-17.196 19.807-17.196.136 0 .272.002.409.004 10.423.211 19.011 8.519 19.55 18.916.289 5.549-1.653 10.816-5.467 14.833-3.817 4.02-8.966 6.233-14.499 6.233-4.137 0-7.489 3.353-7.489 7.489v28.738c0 4.137 3.353 7.489 7.489 7.489 4.137 0 7.489-3.353 7.489-7.489v-22.069c6.77-1.496 13.041-4.99 17.872-10.078 6.67-7.025 10.065-16.231 9.563-25.922-.945-18.202-15.97-32.747-34.206-33.114-17.697-.319-32.907 12.581-35.353 30.097-.222 1.6-.335 3.237-.335 4.867 0 4.137 3.352 7.489 7.489 7.489z"/></g></g></svg>