<svg height="512" viewBox="0 0 128 128" width="512" xmlns="http://www.w3.org/2000/svg"><g><g><path d="m64 7.064c-34.38 0-62.25 22.19-62.25 49.562 0 17.552 11.47 32.962 28.757 41.768-9.28 15.422-21.507 19.92-21.507 19.92 28.231 7.63 43.141-2.9 50.475-12.27 1.5.086 3 .145 4.525.145 34.38 0 62.25-22.19 62.25-49.563s-27.87-49.562-62.25-49.562z" fill="#596c76"/><g fill="#ffda2d"><path d="m88 73.915h-28v-34.578h28zm-20-8h12v-18.578h-12z"/><path d="m31.494 73.919h-8v-34.582h8.262l11.738 19.501v-19.505h8v34.582h-8.263l-11.737-19.5z"/><path d="m96.506 39.333h8v19.474h-8z"/><path d="m96.506 66.814h8v7.102h-8z"/></g></g><g><path d="m64 5.314c-35.29 0-64 23.018-64 51.312 0 17.113 10.437 32.857 28.025 42.439-8.676 13.4-19.52 17.565-19.629 17.606a1.75 1.75 0 0 0 .147 3.329 71.8 71.8 0 0 0 18.731 2.7c16.644 0 26.9-7.4 33.005-14.867 1.365.067 2.565.1 3.721.1a78.8 78.8 0 0 0 18.933-2.28 1.749 1.749 0 1 0 -.842-3.4 75.381 75.381 0 0 1 -18.091 2.186c-1.336 0-2.743-.045-4.425-.142a1.745 1.745 0 0 0 -1.478.668c-6.888 8.8-20.039 17.832-44.065 12.762a53.108 53.108 0 0 0 17.974-18.427 1.75 1.75 0 0 0 -.705-2.462c-17.408-8.871-27.801-23.903-27.801-40.212 0-26.364 27.14-47.812 60.5-47.812s60.5 21.448 60.5 47.812a40.2 40.2 0 0 1 -7.451 22.989 1.75 1.75 0 1 0 2.873 2 43.687 43.687 0 0 0 8.078-24.989c0-28.294-28.71-51.312-64-51.312z"/><path d="m103.52 92.815c-1.563 1.069-3.219 2.088-4.922 3.03a1.749 1.749 0 1 0 1.693 3.062c1.8-.994 3.55-2.071 5.2-3.2a1.751 1.751 0 1 0 -1.975-2.891z"/><path d="m66.25 47.337v18.578a1.749 1.749 0 0 0 1.75 1.75h12a1.749 1.749 0 0 0 1.75-1.75v-18.578a1.749 1.749 0 0 0 -1.75-1.75h-12a1.749 1.749 0 0 0 -1.75 1.75zm3.5 1.75h8.5v15.078h-8.5z"/><path d="m88 37.587h-10.625a1.75 1.75 0 0 0 0 3.5h8.875v31.078h-24.5v-31.078h6.25a1.75 1.75 0 0 0 0-3.5h-8a1.75 1.75 0 0 0 -1.75 1.75v34.578a1.75 1.75 0 0 0 1.75 1.75h28a1.749 1.749 0 0 0 1.75-1.75v-34.578a1.749 1.749 0 0 0 -1.75-1.75z"/><path d="m43.494 37.583a1.749 1.749 0 0 0 -1.75 1.75v13.2l-8.488-14.1a1.749 1.749 0 0 0 -1.5-.848h-8.262a1.749 1.749 0 0 0 -1.75 1.75v34.584a1.749 1.749 0 0 0 1.75 1.75h8a1.75 1.75 0 0 0 1.75-1.75v-13.2l8.487 14.1a1.749 1.749 0 0 0 1.5.848h8.263a1.75 1.75 0 0 0 1.75-1.75v-34.584a1.75 1.75 0 0 0 -1.75-1.75zm6.25 34.582h-5.524l-11.227-18.653a1.75 1.75 0 0 0 -3.249.9v17.757h-4.5v-31.082h5.523l11.227 18.653a1.75 1.75 0 0 0 3.25-.9v-17.757h4.5z"/><path d="m96.507 60.558h8a1.75 1.75 0 0 0 1.75-1.75v-19.475a1.749 1.749 0 0 0 -1.75-1.75h-8a1.749 1.749 0 0 0 -1.75 1.75v19.475a1.75 1.75 0 0 0 1.75 1.75zm1.75-19.475h4.5v15.975h-4.5z"/><path d="m106.257 73.915v-7.1a1.749 1.749 0 0 0 -1.75-1.75h-8a1.749 1.749 0 0 0 -1.75 1.75v7.1a1.749 1.749 0 0 0 1.75 1.75h8a1.749 1.749 0 0 0 1.75-1.75zm-3.5-1.75h-4.5v-3.6h4.5z"/></g></g></svg>