<svg height="512" viewBox="0 0 60 60" width="512" xmlns="http://www.w3.org/2000/svg"><g id="030---Give-Solution" fill="none"><g id="Layer_3" transform="translate(1)"><path id="Shape" d="m9 36v21c0 1.1045695-.8954305 2-2 2h-5c-1.10320187-.0032948-1.9967052-.8967981-2-2v-21c.0032948-1.1032019.89679813-1.9967052 2-2h5c1.10320187.0032948 1.9967052.8967981 2 2z" fill="#9d27b0"/><path id="Shape" d="m56.68 45.57-18.74 11.41c-1.0968305.667384-2.3560847 1.020252-3.64 1.02l-25.57.0000001c.17625351-.3038397.26937666-.6487403.27-1.0000001v-21h2.76c2.0501311.0033923 4.0371819.7092718 5.63 2 1.5890253 1.2905773 3.5729095 1.9965859 5.62 2h5.16c1.7416584.0006806 3.352062.925806 4.23 2.43l.09.15c.8403951 1.425892.6189608 3.2383733-.54 4.42h2.66c.4319935.0002223.8610725-.0707278 1.27-.21l18.51-6.17c1.120338-.3678364 2.3505552.0181141 3.06.96v.01c.4649441.6171961.6465512 1.4025179.4997758 2.1611752s-.608183 1.4195768-1.2697758 1.8188248z" fill="#ffe0b2"/><path id="Shape" d="m57.45 41.59v-.01c-.7094448-.9418859-1.939662-1.3278364-3.06-.96l-.749.25c.3140349.1807419.5890261.4220816.809.71v.01c.4649441.6171961.6465512 1.4025179.4997758 2.1611752s-.608183 1.4195768-1.2697758 1.8188248l-18.74 11.41c-1.0968305.667384-2.3560847 1.020252-3.64 1.0200001l3-.0000001c1.2839153.000252 2.5431695-.352616 3.64-1.02l18.74-11.41c.6615928-.399248 1.1230004-1.0601675 1.2697758-1.8188248s-.0348317-1.5439791-.4997758-2.1611752z" fill="#dfc49c"/><path id="Shape" d="m50.99 13.4c.1975978 4.2574298-1.7042285 8.3413121-5.09 10.93-2.412416 1.7699966-3.8559482 4.5682282-3.9 7.56v.11h-8v-.11c-.0337202-2.9743153-1.4585921-5.7611426-3.85-7.53-4.5275491-3.4313004-6.3027327-9.4050388-4.383776-14.75201254 1.9189568-5.34697375 7.0875708-8.82867686 12.763776-8.59798746 6.7136924.32908867 12.0930932 5.6782681 12.46 12.39z" fill="#ffdc00"/><path id="Shape" d="m38.53 1.01c-.6679869-.02113111-1.336611.00895697-2 .09 5.2560478.61969146 9.611183 4.36502256 11.0107829 9.4690578 1.3995998 5.1040353-.435986 10.5469511-4.6407829 13.7609422-2.412416 1.7699966-3.8559482 4.5682282-3.9 7.56v.11h3v-.11c.0440518-2.9917718 1.487584-5.7900034 3.9-7.56 4.3535512-3.3258434 6.1547916-9.0240949 4.5038454-14.2479842-1.6509461-5.22388927-6.3996991-8.85209569-11.8738454-9.0720158z" fill="#fec108"/><path id="Shape" d="m44 34c-.0032948 1.1032019-.8967981 1.9967052-2 2h-8c-1.1045695 0-2-.8954305-2-2s.8954305-2 2-2h8c1.1032019.0032948 1.9967052.8967981 2 2z" fill="#7f8e94"/><path id="Shape" d="m42 32h-3c1.1045695 0 2 .8954305 2 2s-.8954305 2-2 2h3c1.1045695 0 2-.8954305 2-2s-.8954305-2-2-2z" fill="#545c60"/><path id="Shape" d="m42 36v1c0 2.209139-1.790861 4-4 4s-4-1.790861-4-4v-1z" fill="#607d8b"/></g><g id="Layer_11" fill="#000"><path id="Shape" d="m3 60h5c.84656109-.0009751 1.65202038-.3651067 2.212-1h25.088c1.4674369.0007685 2.9067366-.4026506 4.16-1.166l18.74-11.408c1.6320674-.9871445 2.2611398-3.0434377 1.4607153-4.7747433-.8004244-1.7313056-2.7744495-2.5841239-4.5837153-1.9802567-21.092 7.001-18.414 6.329-20.349 6.329 1.177-3.311-1.77-7-5.558-7h-5.16c-1.818314-.0046477-3.5801447-.6321588-4.992-1.778-2.994-2.415-5.758-2.222-8.202-2.222-.4222546-1.1943509-1.54921457-1.9947486-2.816-2h-5c-1.65685425 0-3 1.3431458-3 3v21c0 1.6568542 1.34314575 3 3 3zm14.76-21.223c1.7680417 1.4335272 3.9738305 2.2180822 6.25 2.223h5.16c2.634 0 4.86 2.882 3.315 5h-5.765c-1.9739947.0012245-3.9036785.585313-5.547 1.679l-.731.49c-.3661708.2451138-.5287486.7010171-.4002961 1.1225165.1284526.4214994.5176588.7092457.9582961.7084835.384 0 .52-.149 1.281-.657 1.3140337-.877353 2.8589906-1.3447729 4.439-1.343h8.89c1.13 0 .008.255 20.093-6.43.8413924-.2765589 1.7565169.1210596 2.1285099.9248301.371993.8037706.0828563 1.7587331-.6725099 2.2211699l-18.74 11.41c-.9397138.5721479-2.0188114.8745305-3.119.874l-24.3.0000007v-20.0000007h1.76c1.8202967.0062369 3.5840391.633071 5 1.777zm-15.76-2.777c0-.5522847.44771525-1 1-1h5c.55228475 0 1 .4477153 1 1v21c0 .5522847-.44771525 1-1 1h-5c-.55228475 0-1-.4477153-1-1z"/><path id="Shape" d="m39.571.012c-6.1143133-.25072584-11.6829655 3.4987328-13.7504138 9.25836374-2.0674482 5.75963096-.1545568 12.19462696 4.7234138 15.88963626 1.9469474 1.434637 3.1890021 3.6320624 3.414 6.04-1.1804219.4355743-1.960971 1.5645659-1.9515615 2.8227521.0094095 1.2581861.806757 2.3753772 1.9935615 2.7932479 0 2.7614237 2.2385763 5 5 5s5-2.2385763 5-5c1.1880021-.4175599 1.9863627-1.5355266 1.9957748-2.7947393.0094122-1.2592127-.7721473-2.3889887-1.9537748-2.8242607.2439419-2.4216363 1.4999185-4.6274043 3.458-6.073 4.6860508-3.581117 6.6252932-9.7149224 4.8495204-15.33898692-1.7757729-5.62406454-6.8856903-9.53212967-12.7785204-9.77301308zm-.571 39.988c-1.6568542 0-3-1.3431458-3-3h6c0 1.6568542-1.3431458 3-3 3zm4-5h-8c-.5522847 0-1-.4477153-1-1s.4477153-1 1-1h8c.5522847 0 1 .4477153 1 1s-.4477153 1-1 1zm3.288-11.465c-2.404145 1.7790139-3.9465317 4.4894462-4.248 7.465h-6.079c-.2832647-2.9631546-1.8132359-5.6660552-4.208-7.434-4.1817523-3.1670603-5.8217351-8.6832627-4.0494098-13.62048724 1.7723253-4.93722457 6.5461441-8.15105193 11.7874098-7.93551276 5.0518903.20479499 9.4334619 3.55412111 10.95653 8.3753035 1.523068 4.8211825-.1391493 10.0798124-4.15653 13.1496965z"/><path id="Shape" d="m59 13h-3c-.5522847 0-1 .4477153-1 1s.4477153 1 1 1h3c.5522847 0 1-.4477153 1-1s-.4477153-1-1-1z"/><path id="Shape" d="m55.8.4c-.3313708-.4418278-.9581722-.53137085-1.4-.2l-2.4 1.8c-.3443443.25825824-.4847973.70788563-.3486833 1.11622777s.5182529.68377223.9486833.68377223c.441 0 .382-.038 3-2 .2121732-.15912989.3524422-.39602771.3899495-.65857864s-.0308196-.52924817-.1899495-.74142136z"/><path id="Shape" d="m51.8 24.6c-.3313708.4418278-.2418278 1.0686292.2 1.4l2.4 1.8c.4418278.3313708 1.0686292.2418278 1.4-.2s.2418278-1.0686292-.2-1.4l-2.4-1.8c-.2121732-.1591299-.4788704-.2274568-.7414214-.1899495-.2625509.0375073-.4994487.1777763-.6585786.3899495z"/><path id="Shape" d="m19 13c-.5522847 0-1 .4477153-1 1s.4477153 1 1 1h3c.5522847 0 1-.4477153 1-1s-.4477153-1-1-1z"/><path id="Shape" d="m23.6.2c-.4418278-.33137084-1.0686291-.24182779-1.4.20000001-.3313708.44182779-.2418278 1.06862914.2 1.39999999 2.616 1.961 2.558 2 3 2 .4304304 0 .8125693-.27543009.9486833-.68377223s-.004339-.85796953-.3486833-1.11622777z"/><path id="Shape" d="m24.8 24.4-2.4 1.8c-.4418278.3313708-.5313708.9581722-.2 1.4s.9581722.5313708 1.4.2l2.4-1.8c.4418278-.3313708.5313708-.9581722.2-1.4s-.9581722-.5313708-1.4-.2z"/><circle id="Oval" cx="39" cy="25" r="1"/><path id="Shape" d="m40.495 6.156c-2.0707251-.45000125-4.2338649.06126415-5.8840126 1.39070626-1.6501477 1.3294421-2.6100251 3.33423674-2.6109874 5.45329374 0 .5522847.4477153 1 1 1s1-.4477153 1-1c.0003607-2.6681368 2.0956355-4.86590616 4.7607152-4.99359505s4.960873 1.85969625 5.2163172 4.51557705c.2554442 2.6558807-1.6194712 5.0444071-4.2600324 5.427018-.9813392.1428515-1.711029.981336-1.717 1.973v1.078c0 .5522847.4477153 1 1 1s1-.4477153 1-1v-1.071c3.3576363-.4759815 5.8911796-3.2902711 6.0129805-6.6792893.121801-3.38901818-2.2031763-6.37792252-5.5179805-7.0937107z"/></g></g></svg>