<svg id="Capa_1" enable-background="new 0 0 512 512" height="512" viewBox="0 0 512 512" width="512" xmlns="http://www.w3.org/2000/svg"><g><g><path d="m396.127 310.634c-49.368 0-89.389 40.021-89.389 89.389v103.605h178.778v-103.605c0-49.369-40.021-89.389-89.389-89.389z" fill="#e490d0"/><path d="m420.583 314.02c-37.474 10.643-64.919 45.107-64.919 86v103.601h-70.014v-103.601c0-49.375 61.112-89.386 110.476-89.386 8.482 0 16.685 1.182 24.457 3.386z" fill="#df73c1"/><g><path d="m477.906 234.447h-182.883c-14.686 0-26.591-11.905-26.591-26.591 0-14.686 11.905-26.591 26.591-26.591h182.884c14.686 0 26.591 11.905 26.591 26.591-.001 14.686-11.906 26.591-26.592 26.591z" fill="#eaac9d"/><path d="m386.465 319.822c-42.518 0-76.986-34.468-76.986-76.986v-72.935c0-42.518 34.468-76.986 76.986-76.986 42.518 0 76.986 34.468 76.986 76.986v72.935c0 42.519-34.468 76.986-76.986 76.986z" fill="#ffddce"/><path d="m406.225 317.269c-6.306 1.676-12.916 2.559-19.754 2.559-42.525 0-76.992-34.467-76.992-76.992v-72.926c0-42.524 34.467-76.992 76.992-76.992 6.839 0 13.449.883 19.754 2.559-32.96 8.727-57.238 38.747-57.238 74.433v72.926c0 35.686 24.278 65.706 57.238 74.433z" fill="#ffcbbe"/><path d="m320.486 77.805h6.764c20.514 0 37.144 16.63 37.144 37.144v.285c0 20.514-16.63 37.144-37.144 37.144h-6.764c-20.514 0-37.144-16.63-37.144-37.144v-.285c0-20.514 16.63-37.144 37.144-37.144z" fill="#524798"/><path d="m337.17 151.021c-3.16.89-6.487 1.354-9.917 1.354h-6.758c-20.518 0-37.154-16.623-37.154-37.141v-.284c0-20.518 16.636-37.141 37.154-37.141h6.758c3.43 0 6.758.464 9.917 1.354-15.707 4.32-27.237 18.699-27.237 35.787v.284c.001 17.088 11.53 31.467 27.237 35.787z" fill="#453d81"/><path d="m357.946 104.133c0 29.487 23.904 53.392 53.392 53.392 47.961 0 86.842-38.88 86.842-86.842v-7.076h-101.652c-22.079 0-39.666 18.474-38.582 40.526z" fill="#524798"/><path d="m428.669 155.795c-5.597 1.135-11.4 1.728-17.332 1.728-29.493 0-53.39-23.896-53.39-53.39-1.083-22.052 16.507-40.52 38.585-40.52h30.873c-22.078 0-39.668 18.467-38.585 40.52 0 24.812 16.919 45.665 39.849 51.662z" fill="#453d81"/></g><path d="m128.429 310.634c-49.368 0-89.389 40.021-89.389 89.389v103.605h178.778v-103.605c0-49.369-40.02-89.389-89.389-89.389z" fill="#b1e4f9"/><path d="m158.451 315.801c-34.604 12.33-59.372 45.376-59.372 84.215v103.612h-60.039v-103.612c0-49.364 40.022-89.386 89.386-89.386 10.535 0 20.64 1.817 30.025 5.171z" fill="#90d8f9"/><g><path d="m222.113 234.293h-187.367c-15.046 0-27.243-12.197-27.243-27.243 0-15.046 12.197-27.243 27.243-27.243h187.367c15.046 0 27.243 12.197 27.243 27.243 0 15.046-12.197 27.243-27.243 27.243z" fill="#8b5e5e"/><path d="m128.429 333.409c-43.561 0-78.874-35.313-78.874-78.874v-109.624c0-43.561 35.313-78.874 78.874-78.874 43.561 0 78.874 35.313 78.874 78.874v109.624c0 43.561-35.313 78.874-78.874 78.874z" fill="#aa8080"/><path d="m148.674 330.793c-6.46 1.717-13.232 2.622-20.239 2.622-43.567 0-78.88-35.312-78.88-78.879v-109.616c0-43.567 35.312-78.88 78.88-78.88 7.006 0 13.779.905 20.239 2.622-33.768 8.941-58.641 39.697-58.641 76.258v109.615c0 36.561 24.873 67.317 58.641 76.258z" fill="#9d6b6b"/><path d="m236.282 155.737c0 16.893-12.627 30.846-28.978 32.904v-19.567l-12.394 1.931c-4.138.647-8.255.955-12.341.955-33 0-63.199-20.511-74.881-52.291 0 21.827-17.699 39.526-39.526 39.526h-18.611v29.445c-7.491-.944-14.197-4.382-19.269-9.454-5.995-5.995-9.709-14.293-9.709-23.45 0-17.688 13.847-32.14 31.292-33.117-3.173-3.013-5.762-6.664-7.555-10.738-1.783-4.075-2.78-8.574-2.78-13.306 0-18.325 14.845-33.17 33.17-33.17h107.457c9.168 0 17.455 3.714 23.461 9.709 5.995 6.006 9.709 14.293 9.709 23.461 0 9.465-3.979 18.007-10.335 24.044 8.722.488 16.542 4.351 22.188 10.293 5.643 5.943 9.102 13.987 9.102 22.825z" fill="#524798"/><path d="m81.055 98.576c0 4.732.997 9.232 2.78 13.306 1.793 4.075 4.382 7.725 7.555 10.738-17.444.976-31.292 15.428-31.292 33.117 0 1.167.064 2.324.18 3.459h-10.727v29.445c-7.491-.944-14.197-4.382-19.269-9.454-5.995-5.995-9.709-14.293-9.709-23.45 0-17.688 13.847-32.14 31.292-33.117-3.173-3.013-5.762-6.664-7.555-10.738-1.783-4.075-2.78-8.574-2.78-13.306 0-18.325 14.845-33.17 33.17-33.17h39.526c-18.326.001-33.171 14.845-33.171 33.17z" fill="#453d81"/></g><g><path d="m305.031 16.049c-10.261-10.261-26.897-10.261-37.157 0l-9.229 9.229-9.229-9.229c-10.261-10.261-26.897-10.261-37.157 0-10.261 10.261-10.261 26.897 0 37.157l46.386 46.386 46.386-46.386c10.261-10.26 10.261-26.896 0-37.157z" fill="#e490d0"/></g><g><path d="m264.318 440.275h-13.59c-26.693 0-48.332 21.639-48.332 48.332v15.02h110.255v-15.02c0-26.692-21.639-48.332-48.333-48.332z" fill="#b3e59f"/><path d="m273.599 441.163c-22.256 4.324-39.062 23.927-39.062 47.442v15.023h-32.141v-15.023c0-26.691 21.643-48.334 48.334-48.334h13.585c3.177 0 6.286.301 9.284.892z" fill="#95d6a4"/><g><path d="m357.922 360.829h-200.797c-12.688 0-22.973-10.285-22.973-22.973 0-12.688 10.285-22.973 22.973-22.973h200.796c12.688 0 22.973 10.285 22.973 22.973.001 12.687-10.285 22.973-22.972 22.973z" fill="#eaac9d"/><path d="m257.523 450.963c-49.78 0-90.134-40.354-90.134-90.134v-22.91c0-49.78 40.355-90.134 90.134-90.134 49.78 0 90.134 40.355 90.134 90.134v22.91c.001 49.78-40.354 90.134-90.134 90.134z" fill="#ffddce"/><path d="m280.621 447.976c-7.365 1.954-15.109 2.996-23.101 2.996-49.778 0-90.131-40.353-90.131-90.142v-22.912c0-49.778 40.353-90.131 90.131-90.131 7.992 0 15.736 1.042 23.101 2.996-38.6 10.195-67.041 45.338-67.041 87.135v22.912c-.001 41.808 28.44 76.951 67.041 87.146z" fill="#ffcbbe"/><path d="m238.688 267.293h10.654 10.395 9.862c11.187 0 20.256-9.069 20.256-20.256 0-11.187-9.069-20.256-20.256-20.256h-9.862v-3.558c0-8.928-7.238-16.166-16.166-16.166-8.928 0-16.166 7.238-16.166 16.166 0-9.187-7.664-16.584-16.947-16.147-8.695.409-15.384 7.899-15.384 16.604 0 24.087 19.527 43.613 43.614 43.613z" fill="#f9ef63"/><path d="m261.879 267.3h-23.184c-12.054 0-22.947-4.878-30.845-12.776-7.898-7.886-12.776-18.803-12.776-30.845 0-8.703 6.69-16.186 15.393-16.601 4.89-.237 9.342 1.717 12.444 4.961-2.889 3.031-4.653 7.175-4.653 11.639 0 12.042 4.878 22.959 12.776 30.845 7.898 7.899 18.791 12.777 30.845 12.777z" fill="#ffd064"/></g></g></g><g><path d="m470.96 242.831v-.89h6.947c9.114 0 17.678-3.544 24.112-9.979 6.437-6.435 9.98-14.993 9.98-24.098 0-18.799-15.294-34.093-34.093-34.093h-6.947v-29.964c2.45-2.005 4.815-4.143 7.084-6.411 1.369-1.369 2.707-2.795 3.978-4.24 2.735-3.11 2.432-7.849-.679-10.585-3.109-2.735-7.849-2.432-10.585.678-1.06 1.205-2.178 2.396-3.321 3.54-14.981 14.982-34.904 23.233-56.097 23.233-25.304 0-45.89-20.586-45.89-45.89 0-.124-.003-.247-.009-.37-.425-8.59 2.607-16.751 8.537-22.982 5.934-6.235 13.943-9.668 22.552-9.668h94.148c-.053 9.955-1.923 19.651-5.561 28.825-1.527 3.85.356 8.21 4.207 9.737 3.852 1.526 8.21-.357 9.736-4.207 4.392-11.074 6.618-22.777 6.618-34.785v-7.07c0-4.142-3.357-7.5-7.5-7.5h-101.647c-12.756 0-24.624 5.088-33.417 14.326-2.943 3.092-5.391 6.51-7.34 10.16-7.89-6.576-17.9-10.286-28.522-10.286h-6.771c-24.615 0-44.642 20.026-44.642 44.641v.284c0 18.013 10.731 33.557 26.13 40.605v17.928h-6.947c-9.115 0-17.679 3.544-24.113 9.979-6.28 6.279-9.797 14.585-9.964 23.452-1.272-1.378-2.703-2.603-4.267-3.649-1.194-11.766-8.319-21.958-18.481-27.284 3.553-6.058 5.585-13.086 5.585-20.53 0-10.47-3.966-20.41-11.167-27.99-4.169-4.389-9.177-7.74-14.674-9.892 3.166-5.883 4.884-12.517 4.884-19.28 0-10.859-4.227-21.073-11.91-28.768-7.687-7.675-17.9-11.902-28.759-11.902h-107.456c-22.426 0-40.67 18.244-40.67 40.67 0 5.655 1.147 11.144 3.415 16.327.445 1.01.927 1.997 1.447 2.961-15.172 5.951-25.819 20.735-25.819 37.874 0 7.341 1.937 14.38 5.558 20.545-3.108 1.624-5.975 3.71-8.464 6.205-6.556 6.556-10.166 15.283-10.166 24.573 0 19.15 15.589 34.73 34.75 34.73h7.3v12.75c0 26.494 12.003 50.229 30.845 66.085-25.755 18.005-41.355 47.483-41.355 79.395v20.13c0 4.142 3.357 7.5 7.5 7.5s7.5-3.358 7.5-7.5v-20.13c0-28.867 15.103-55.38 39.672-70.17 12.049 6.78 25.875 10.745 40.595 11.019 1.519 15.391 14.536 27.455 30.32 27.455h3.047c2.635 34.551 23.335 64.128 52.648 79.287-11.282 10.43-17.922 25.198-17.922 40.999v7.52h-148.36v-45.98c0-4.142-3.357-7.5-7.5-7.5s-7.5 3.358-7.5 7.5v53.48c0 4.142 3.357 7.5 7.5 7.5h163.36 15.42 67.83 27 172.87c4.143 0 7.5-3.358 7.5-7.5v-103.61c0-38.849-22.896-73.164-57.361-88.497 21.856-15.676 35.301-41.139 35.301-68.693zm6.947-54.061c10.527 0 19.093 8.565 19.093 19.093 0 5.098-1.983 9.889-5.587 13.492-3.602 3.602-8.398 5.586-13.506 5.586h-6.947v-38.171zm-187.067-73.534v-.284c0-16.344 13.297-29.641 29.642-29.641h6.771c9.29 0 17.871 4.28 23.457 11.554-.279 2.447-.373 4.934-.258 7.449.023 7.809 1.54 15.268 4.253 22.129-4.51 11.123-15.24 18.433-27.451 18.433h-6.771c-16.346 0-29.643-13.296-29.643-29.64zm29.641 44.64h6.771c14.656 0 27.896-6.998 36.108-18.323 11.154 14.268 28.508 23.467 47.98 23.467 15.83 0 31.063-3.874 44.62-11.17v88.98c0 27.385-16.136 52.271-41.13 63.464-.072.03-.145.06-.216.092-8.874 3.944-18.347 5.944-28.154 5.944-4.918 0-9.816-.533-14.582-1.549-3.287-1.702-6.917-2.828-10.761-3.23-4.685-1.834-9.155-4.167-13.32-6.97-4.844-11.714-12-22.471-21.233-31.704-2.12-2.12-4.348-4.136-6.659-6.054-1.941-6.437-2.934-13.15-2.934-19.992v-83.105c1.159.09 2.327.15 3.51.15zm33.45 162.507h3.989c8.53 0 15.471 6.94 15.471 15.471 0 4.135-1.608 8.021-4.529 10.942-2.92 2.92-6.806 4.529-10.941 4.529h-2.76v-15.404c-.001-5.256-.42-10.446-1.23-15.538zm-57.046-80.443h5.085v.89c0 2.811.154 5.602.426 8.373-1.677-.871-3.378-1.693-5.099-2.463.034-.564.057-1.131.057-1.704 0-1.74-.161-3.443-.469-5.096zm-15.369-47.585c3.602-3.602 8.398-5.586 13.507-5.586h6.947v38.171h-6.947c-10.528 0-19.094-8.558-19.094-19.078 0-5.107 1.983-9.904 5.587-13.507zm-11.917 39.926c7.033 0 12.756 5.722 12.756 12.756s-5.723 12.756-12.756 12.756h-30.911c-19.913 0-36.113-16.2-36.113-36.114 0-4.811 3.695-8.898 8.236-9.112.143-.007.284-.01.426-.01 2.245 0 4.355.841 5.983 2.394 1.731 1.652 2.686 3.88 2.686 6.271 0 4.142 3.357 7.5 7.5 7.5s7.5-3.358 7.5-7.5c0-4.778 3.888-8.666 8.666-8.666s8.665 3.887 8.665 8.666v3.558c0 4.142 3.357 7.5 7.5 7.5h9.862zm-41.92-46.151c5.869 1.716 10.552 6.074 12.772 11.638-5.005.662-9.522 2.889-13.038 6.179-3.549-3.325-7.908-5.423-12.613-6.125v-5.133c4.724-1.415 9.068-3.66 12.879-6.559zm-175.396-58.021c2.988-.167 5.59-2.094 6.621-4.904 1.032-2.809.295-5.962-1.875-8.023-2.501-2.375-4.471-5.174-5.849-8.307-1.428-3.261-2.151-6.726-2.151-10.299 0-14.155 11.516-25.67 25.67-25.67h107.457c6.856 0 13.306 2.669 18.152 7.508 4.848 4.855 7.517 11.305 7.517 18.162 0 7.098-2.841 13.706-8 18.606-2.17 2.061-2.906 5.214-1.875 8.023s3.633 4.736 6.621 4.903c6.537.366 12.635 3.196 17.169 7.97 4.541 4.78 7.042 11.051 7.042 17.658 0 9.862-5.624 18.579-13.979 22.861v-9.523c0-2.191-.958-4.272-2.622-5.697-1.368-1.172-3.102-1.803-4.878-1.803-.384 0-.77.03-1.154.089l-12.398 1.932c-3.669.574-7.431.865-11.182.865-30.16 0-57.424-19.04-67.842-47.378-1.253-3.411-4.765-5.434-8.354-4.796-3.579.637-6.186 3.749-6.186 7.384 0 17.659-14.366 32.026-32.025 32.026h-18.611c-4.14 0-7.495 3.354-7.5 7.492 0 .004-.001.008-.001.012v19.385c-2.374-1.216-4.564-2.799-6.465-4.701-4.845-4.844-7.513-11.289-7.513-18.147 0-13.611 10.635-24.868 24.211-25.628zm-17.533 96.682c-10.891 0-19.75-8.851-19.75-19.73 0-5.284 2.05-10.244 5.779-13.973 2.365-2.371 5.221-4.054 8.373-4.97 3.875 2.936 8.254 5.17 12.897 6.57v32.103zm22.3 27.75.001-87.844h11.112c18.324 0 34.232-10.533 41.989-25.864 15.99 23.702 43.067 38.629 72.417 38.629 4.524 0 9.066-.352 13.495-1.044l3.735-.582v24.707c-7.315 4.109-12.226 12.042-12.226 21.137 0 13.323 5.128 25.467 13.508 34.574-17.151 12.169-29.781 29.478-36.268 49.129h-7.687c-8.144 0-15.796 3.169-21.556 8.93-2.795 2.803-4.973 6.053-6.48 9.585-.22.002-.441.013-.661.013-39.359 0-71.379-32.017-71.379-71.37zm84.606 83.313c0-4.127 1.611-8.016 4.529-10.943 2.92-2.92 6.806-4.528 10.941-4.528h4.02c-.823 5.094-1.257 10.285-1.257 15.538v15.404h-2.763c-8.529 0-15.47-6.94-15.47-15.471zm33.234 22.977v-22.91c0-28.393 14.648-54.763 38.496-69.857 7.466 4.273 16.1 6.73 25.301 6.73h30.911c9.388 0 17.697-4.69 22.722-11.845 8.73 4.068 16.808 9.708 23.635 16.536 15.608 15.607 24.204 36.361 24.204 58.437v22.91c0 45.562-37.072 82.63-82.641 82.63-45.561-.001-82.628-37.069-82.628-82.631zm110.76 135.3h-67.83-7.92v-7.52c0-14.05 7.177-26.984 18.914-34.459 9.08 2.799 18.719 4.309 28.706 4.309 9.988 0 19.629-1.51 28.711-4.309 11.74 7.465 18.92 20.399 18.92 34.46v7.52h-19.501zm192.37-96.11v96.11h-157.87v-7.52c0-15.809-6.64-30.577-17.924-41.002 29.313-15.16 50.014-44.735 52.649-79.284h3.045c8.142 0 15.795-3.169 21.548-8.922 5.754-5.753 8.923-13.406 8.923-21.549 0-3.698-.663-7.243-1.875-10.525 10.974-.007 21.604-2.104 31.654-6.186 35.354 9.843 59.85 41.932 59.85 78.878z"/><path d="m386.464 253.385c12.827 0 24.886-4.995 33.955-14.064 2.929-2.929 2.929-7.678 0-10.607-2.93-2.929-7.678-2.929-10.607 0-6.236 6.236-14.527 9.671-23.348 9.671-8.819 0-17.11-3.435-23.347-9.671-2.929-2.928-7.677-2.929-10.607 0-2.929 2.929-2.929 7.678 0 10.607 9.069 9.069 21.128 14.064 33.954 14.064z"/><path d="m366.377 202.482c4.143 0 7.5-3.358 7.5-7.5v-15.552c0-4.142-3.357-7.5-7.5-7.5s-7.5 3.358-7.5 7.5v15.552c0 4.142 3.357 7.5 7.5 7.5z"/><path d="m406.552 202.482c4.143 0 7.5-3.358 7.5-7.5v-15.552c0-4.142-3.357-7.5-7.5-7.5s-7.5 3.358-7.5 7.5v15.552c0 4.142 3.357 7.5 7.5 7.5z"/><path d="m128.43 265.159c13.091 0 25.399-5.098 34.656-14.355 2.93-2.929 2.93-7.678.001-10.607-2.929-2.928-7.677-2.929-10.607 0-6.424 6.424-14.965 9.962-24.05 9.962s-17.626-3.538-24.05-9.962c-2.929-2.928-7.678-2.929-10.606 0-2.93 2.929-2.93 7.678-.001 10.607 9.256 9.256 21.565 14.355 34.657 14.355z"/><path d="m107.85 213.008c4.143 0 7.5-3.358 7.5-7.5v-15.933c0-4.142-3.357-7.5-7.5-7.5s-7.5 3.358-7.5 7.5v15.933c0 4.142 3.357 7.5 7.5 7.5z"/><path d="m149.01 213.008c4.143 0 7.5-3.358 7.5-7.5v-15.933c0-4.142-3.357-7.5-7.5-7.5s-7.5 3.358-7.5 7.5v15.933c0 4.142 3.357 7.5 7.5 7.5z"/><path d="m253.341 104.896c1.407 1.406 3.314 2.197 5.304 2.197s3.896-.79 5.304-2.197l46.387-46.386c13.168-13.168 13.168-34.595 0-47.764-13.17-13.169-34.596-13.169-47.766 0l-3.925 3.925-3.925-3.925c-13.171-13.169-34.596-13.168-47.765 0-13.168 13.168-13.168 34.595 0 47.764zm-35.779-83.543c3.66-3.66 8.467-5.49 13.275-5.49 4.807 0 9.615 1.831 13.274 5.49l9.229 9.229c1.407 1.406 3.314 2.197 5.304 2.197s3.896-.79 5.304-2.197l9.229-9.229c7.32-7.32 19.23-7.32 26.551 0 7.32 7.32 7.32 19.231 0 26.551l-41.083 41.083-41.082-41.083c-7.321-7.321-7.321-19.231-.001-26.551z"/><path d="m295.158 366.94c2.929-2.929 2.929-7.678-.001-10.607-2.927-2.928-7.676-2.929-10.606 0-7.219 7.219-16.817 11.195-27.027 11.195s-19.809-3.976-27.027-11.195c-2.929-2.928-7.678-2.929-10.606 0-2.93 2.929-2.93 7.678-.001 10.607 10.053 10.053 23.418 15.589 37.635 15.589s27.58-5.537 37.633-15.589z"/><path d="m229.356 336.927c4.143 0 7.5-3.358 7.5-7.5v-17.549c0-4.142-3.357-7.5-7.5-7.5s-7.5 3.358-7.5 7.5v17.549c0 4.143 3.358 7.5 7.5 7.5z"/><path d="m285.69 336.927c4.143 0 7.5-3.358 7.5-7.5v-17.549c0-4.142-3.357-7.5-7.5-7.5s-7.5 3.358-7.5 7.5v17.549c0 4.143 3.358 7.5 7.5 7.5z"/></g></g></svg>