<svg id="Capa_1" enable-background="new 0 0 511.68 511.68" height="512" viewBox="0 0 511.68 511.68" width="512" xmlns="http://www.w3.org/2000/svg"><g><g><path d="m353.703 38.37c0-17.049-13.821-30.87-30.87-30.87-17.049 0-30.87 13.821-30.87 30.87v220.085h61.74z" fill="#ffefe7"/><path d="m330.208 193.382c-2.276 0-4.526.164-6.736.484-4.861.703-9.199-3.111-9.199-8.023v-151.029c0-11.325 6.111-21.226 15.203-26.597-3.626-.794-7.493-.967-11.483-.334-15.117 2.397-26.03 15.812-26.03 31.118v219.454h17.818 43.922v-3.556-55.162c-7.132-4.162-15.215-6.355-23.495-6.355z" fill="#ffe0d1"/><g><path d="m304.879 231.682c.96-2.92 2.43-5.71 4.44-8.23 5.23-6.58 13-10.07 20.89-10.07 4.91 0 9.87 1.35 14.29 4.16l38.73 24.66c14.32 9.11 22.6 25.26 21.63 42.21l-3.17 55.53c-1.2 21-10.87 40.62-26.8 54.36l-49.72 42.88c-.59.51-.92 1.24-.92 2.02v58.68c0 3.479-2.821 6.3-6.3 6.3h-171.81c-3.479 0-6.3-2.821-6.3-6.3v-41.33c0-4.33-1.04-8.6-3.02-12.46l-1.15-2.23c-10.45-20.29-15.9-42.77-15.9-65.59v-109.01-78.12z" fill="#ffefe7"/></g><path d="m171.965 459.879c0-4.33-1.04-8.6-3.02-12.46l-1.15-2.23c-10.45-20.29-15.9-42.77-15.9-65.59v-116.865h-32.126v113.538c0 22.82 5.45 45.3 15.9 65.59l1.15 2.23c1.98 3.86 3.02 8.13 3.02 12.46v41.33c0 3.479 2.821 6.3 6.3 6.3h26.572c-.475-.886-.746-1.897-.746-2.973z" fill="#ffd1c2"/><g><g id="XMLID_113_"><g><path d="m358.936 270.261-36.103-34.351-37.469-8.712c-4.525 15.79-.458 32.812 10.873 44.836l5.236 5.553c2.323 2.464 1.668 6.463-1.323 8.051-21.24 11.274-38.246 29.007-48.701 51.068l-3.734 7.577c-7.687 15.598-11.686 32.755-11.686 50.145 0 22.193 17.991 40.184 40.184 40.184h46.621v-110.846l23.162 2.516z" fill="#ffd1c2"/><path d="m309.319 223.452c-2.01 2.52-3.48 5.31-4.44 8.23l-185.11-42.54v100.569c5.558 2.09 11.571 3.241 17.85 3.241 11.58 0 22.264-3.895 30.822-10.438 2.96-2.263 6.927-2.629 10.332-1.116 6.294 2.797 13.257 4.354 20.576 4.354h.01c12.012 0 23.058-4.193 31.767-11.185 2.951-2.369 6.93-2.983 10.421-1.521 6.357 2.661 13.361 4.07 20.71 3.903 27.784-.629 49.702-23.963 49.702-51.755v-4.594c-.935.877-1.822 1.822-2.64 2.852z" fill="#ffd1c2"/><g fill="#ffefe7"><path d="m291.959 152.192v73.9c0 17.05-13.82 30.87-30.87 30.87-17.04 0-30.87-13.82-30.87-30.87v-62.6-11.3c0-17.05 13.83-30.87 30.87-30.87 8.52 0 16.24 3.46 21.83 9.04 5.59 5.59 9.04 13.3 9.04 21.83z"/><path d="m230.219 226.092v8.79c0 17.05-13.82 30.87-30.86 30.87h-.01c-17.04 0-30.86-13.82-30.86-30.87v-56.44-14.95c0-17.05 13.82-30.87 30.86-30.87h.01c17.04 0 30.86 13.82 30.86 30.87z"/><path d="m168.489 234.882v7.2c0 17.05-13.83 30.87-30.87 30.87-17.05 0-30.87-13.82-30.87-30.87v-63.64c0-17.05 13.82-30.87 30.87-30.87 8.52 0 16.24 3.45 21.83 9.04 5.58 5.59 9.04 13.31 9.04 21.83z"/></g><path d="m248.327 229.822v-68.919-12.441c0-11.079 5.311-20.927 13.515-27.131-.25-.006-.502-.009-.754-.009-17.04 0-30.87 13.82-30.87 30.87v11.3 62.6c0 17.05 13.83 30.87 30.87 30.87.252 0 .511-.003.761-.009-8.204-6.205-13.522-16.052-13.522-27.131z" fill="#ffe0d1"/><path d="m188.068 238.485v-62.137-16.459c0-11.11 5.331-20.983 13.572-27.184-.754-.055-1.513-.083-2.281-.083h-.01c-17.04 0-30.86 13.82-30.86 30.87v14.95 56.44c0 17.05 13.82 30.87 30.86 30.87h.01c.768 0 1.547-.029 2.301-.085-8.241-6.201-13.592-16.072-13.592-27.182z" fill="#ffe0d1"/><path d="m124.338 244.603v-70.064c0-10.989 5.219-20.754 13.31-26.966-.01 0-.019-.001-.029-.001-17.05 0-30.87 13.82-30.87 30.87v63.64c0 17.05 13.82 30.87 30.87 30.87.628 0 1.26-.019 1.879-.056-9.132-6.093-15.16-16.491-15.16-28.293z" fill="#ffe0d1"/></g></g></g><g id="XMLID_112_"><g><path d="m383.229 242.202c14.32 9.11 22.6 25.26 21.63 42.21l-3.17 55.53c-1.2 21-10.87 40.62-26.8 54.36l-49.72 42.88c-.58.51-.91 1.23-.92 2h-31.439c-20.313 0-36.781-16.467-36.781-36.781 0-19.571 4.5-38.879 13.151-56.434l.279-.566c10.29-21.8 28.7-38.72 51.29-47.14l15.65-5.83c2.3-.86 2.98-3.79 1.3-5.58l-26.91-28.54c-6.87-7.29-8.9-17.57-5.91-26.63.96-2.92 2.43-5.71 4.44-8.23 5.23-6.58 13-10.07 20.89-10.07 4.91 0 9.87 1.35 14.29 4.16z" fill="#ffefe7"/></g></g></g><g><path d="m387.258 235.872-26.055-16.582v-50.566c0-4.142-3.357-7.5-7.5-7.5s-7.5 3.358-7.5 7.5v41.152c-14.448-7.701-32.414-4.111-42.762 8.913-1.585 1.996-2.908 4.13-3.979 6.356v-186.775c0-12.886 10.483-23.37 23.37-23.37s23.37 10.484 23.37 23.37v98.391c0 4.142 3.357 7.5 7.5 7.5s7.5-3.358 7.5-7.5v-98.391c0-21.157-17.213-38.37-38.37-38.37s-38.37 17.213-38.37 38.37v83.422c-6.477-4.99-14.58-7.969-23.37-7.969-15.436 0-28.762 9.167-34.846 22.338-6.93-6.819-16.427-11.036-26.893-11.036-16.434 0-30.482 10.387-35.938 24.939-6.819-6.206-15.876-9.995-25.802-9.995-21.157 0-38.37 17.212-38.37 38.37v63.646c0 11.448 5.046 21.734 13.022 28.77v41.625c0 4.142 3.357 7.5 7.5 7.5s7.5-3.358 7.5-7.5v-33.454c3.294.924 6.762 1.429 10.348 1.429 14.365 0 26.903-7.939 33.479-19.656 7.019 7.646 17.088 12.449 28.261 12.449 14.773 0 27.614-8.397 34.024-20.664 6.99 7.31 16.826 11.877 27.716 11.877 15.602 0 29.049-9.366 35.041-22.766.386 7.908 3.472 15.686 9.201 21.763l22.704 24.081-9.906 3.694c-24.565 9.16-44.261 27.261-55.458 50.97-1.769 3.745-.166 8.215 3.579 9.984 3.746 1.768 8.216.167 9.985-3.579 9.516-20.151 26.255-35.536 47.134-43.321l15.646-5.833c3.441-1.284 5.994-4.187 6.828-7.764s-.172-7.31-2.692-9.984l-26.905-28.538c-6.485-6.878-6.941-17.648-1.061-25.051 6.116-7.699 16.985-9.525 25.279-4.245l38.737 24.653c12.019 7.648 18.979 21.235 18.167 35.459l-3.169 55.525c-1.056 18.511-9.637 36.188-23.542 48.498-3.102 2.746-3.39 7.486-.644 10.587 1.482 1.674 3.545 2.528 5.618 2.528 1.767 0 3.541-.621 4.969-1.884 16.877-14.941 27.292-36.4 28.575-58.875l3.169-55.525c1.121-19.64-8.493-38.403-25.09-48.966zm-226.274 6.213c0 12.886-10.483 23.37-23.37 23.37s-23.37-10.484-23.37-23.37v-63.646c0-12.886 10.483-23.37 23.37-23.37s23.37 10.483 23.37 23.37zm61.74-7.207c0 12.886-10.483 23.37-23.37 23.37s-23.37-10.484-23.37-23.37v-71.383c0-12.886 10.483-23.37 23.37-23.37s23.37 10.484 23.37 23.37zm61.739-8.786c0 12.886-10.483 23.37-23.37 23.37-12.886 0-23.369-10.484-23.369-23.37v-73.899c0-12.886 10.483-23.37 23.369-23.37 12.887 0 23.37 10.483 23.37 23.37z"/><path d="m346.546 408.84-26.272 22.66c-2.243 1.935-3.529 4.743-3.529 7.705v64.975c0 4.142 3.357 7.5 7.5 7.5s7.5-3.358 7.5-7.5v-62.764l24.599-21.217c3.137-2.705 3.486-7.441.781-10.578-2.707-3.138-7.444-3.486-10.579-.781z"/><path d="m142.332 438.427c-9.856-19.137-15.066-40.63-15.066-62.155v-31.83c0-4.142-3.357-7.5-7.5-7.5s-7.5 3.358-7.5 7.5v31.83c0 23.903 5.785 47.771 16.731 69.024l1.15 2.234c1.432 2.778 2.188 5.899 2.188 9.024v47.625c0 4.142 3.357 7.5 7.5 7.5s7.5-3.358 7.5-7.5v-47.625c0-5.504-1.332-10.999-3.853-15.893z"/></g></g></svg>