<svg id="Layer_1" enable-background="new 0 0 512.012 512.012" height="512" viewBox="0 0 512.012 512.012" width="512" xmlns="http://www.w3.org/2000/svg"><g><g clip-rule="evenodd" fill-rule="evenodd"><path d="m178.41 209.475c.476 23.236 13.038 50.055 42.095 90.825 16.177 22.698 29.898 45.955 37.941 72.591 7.202 23.855 31.445 32.424 50.207 19.254 14.872-10.439 17.84-34.862 31.655-46.052 39.087-31.662-16.576-47.139 3.22-83.022 19.65-35.619 27.821-21.131 15.407-73.315-14.041-59.028-41.673-92.37-74.434-95.004-50.21-4.037-107.354 53.096-106.091 114.723z" fill="#ffd0c7"/><path d="m284.501 94.752c32.761 2.634 60.393 35.976 74.434 95.004 12.413 52.184 4.243 37.696-15.407 73.315-19.796 35.883 35.868 51.36-3.22 83.022-13.815 11.19-16.783 35.613-31.655 46.052-18.762 13.17-43.005 4.6-50.207-19.254-8.043-26.637-21.764-49.893-37.941-72.591-29.057-40.77-41.619-67.589-42.095-90.825-1.263-61.627 55.881-118.76 106.091-114.723zm121.509 310.927c0-95.199 0-190.398 0-285.597 0-186.18-300-116.572-300 62.781 0 141.882 99.33 137.693 99.33 222.816.001 128.435 200.67 128.436 200.67 0z" fill="#ffdcd5"/><path d="m496.177 15.839c7.779 7.778 7.779 20.506 0 28.284l-452.05 452.05c-7.778 7.778-20.506 7.778-28.284 0-7.778-7.778-7.778-20.506 0-28.284l452.05-452.05c7.779-7.779 20.506-7.779 28.284 0z" fill="#ff5a58"/></g><g><path d="m512.012 29.981c-.001-8.029-3.113-15.563-8.764-21.213s-13.185-8.763-21.213-8.763-15.563 3.112-21.213 8.763l-55.542 55.542c-9.931-22.573-26.628-40.057-48.972-51.061-24.283-11.959-54.215-15.92-86.557-11.456-43.133 5.955-86.111 26.525-117.917 56.436-36.52 34.345-55.824 77.443-55.824 124.634 0 71.782 23.81 107.815 51.817 138.899l-139.055 139.056c-11.696 11.696-11.695 30.729.001 42.426 5.651 5.65 13.185 8.763 21.213 8.763 8.029 0 15.563-3.112 21.213-8.763l135.005-135.005c6.26 11.628 9.137 23.553 9.137 37.44 0 32.776 12.056 60.388 34.863 79.852 20.006 17.072 46.809 26.475 75.472 26.475s55.466-9.402 75.472-26.475c22.808-19.464 34.863-47.076 34.863-79.852v-267.247l87.238-87.238c5.651-5.651 8.763-13.185 8.763-21.213zm-396.002 152.882c0-90.709 80.62-150.786 156.477-161.258 45.57-6.291 99.494 5.925 117.368 58.131l-45.759 45.759c-15.744-24.864-35.883-38.868-58.793-40.71-14.461-1.162-30.017 2.099-44.988 9.432-4.96 2.429-7.012 8.419-4.582 13.379s8.418 7.013 13.379 4.582c11.747-5.753 23.704-8.334 34.588-7.457 21.294 1.712 36.294 18.982 45.837 35.334l-122.13 122.127c-12.77-21.723-18.701-38.342-18.999-52.912-.248-12.091 1.983-24.376 6.632-36.512 1.975-5.158-.604-10.94-5.763-12.915-5.155-1.973-10.939.604-12.915 5.762-5.576 14.56-8.251 29.389-7.95 44.075.392 19.166 7.971 40.075 24.415 67.083l-30.835 30.835c-25.738-28.715-45.982-60.349-45.982-124.735zm280.001 222.816c0 59.312-46.827 86.326-90.335 86.326s-90.335-27.014-90.335-86.326c0-19.224-4.632-35.973-14.488-52.09l25.87-25.87c10.258 16.802 17.39 32.3 22.149 48.062 4.439 14.706 14.569 25.76 27.791 30.33 4.291 1.483 8.719 2.213 13.147 2.213 8.536 0 17.068-2.716 24.587-7.994 9.832-6.901 15.218-17.882 19.97-27.57 3.761-7.668 7.313-14.91 12.235-18.897 27.773-22.498 16.79-42.548 9.521-55.816-6.515-11.892-9.905-19.155-3.842-30.146 4.965-9 9.124-14.553 12.465-19.015 11.939-15.941 13.313-21.938 3.916-61.446-.105-.442-.219-.891-.327-1.335l27.674-27.674v247.248zm-44.323-202.924c5.206 23.238 3.786 25.151-2.949 34.144-3.517 4.695-8.333 11.126-13.969 21.342-11.67 21.154-2.721 37.489 3.813 49.416 7.235 13.208 10.23 18.676-4.571 30.666-8.347 6.762-13.052 16.354-17.602 25.63-4.051 8.258-7.876 16.058-13.504 20.008-6.193 4.347-13.192 5.5-19.711 3.248-7.083-2.448-12.615-8.72-15.178-17.208-5.654-18.727-14.235-36.946-26.773-56.804zm137.419-165.704-452.051 452.051c-1.873 1.873-4.384 2.904-7.07 2.904s-5.198-1.032-7.071-2.905c-3.898-3.899-3.898-10.243 0-14.142l452.05-452.049c1.949-1.95 4.51-2.924 7.07-2.924s5.121.975 7.07 2.924h.001c1.873 1.873 2.905 4.384 2.905 7.071.001 2.686-1.031 5.197-2.904 7.07z"/><path d="m209.154 140.768c5.522 0 10-4.477 10-10s-4.478-10-10-10h-.008c-5.522 0-9.996 4.477-9.996 10s4.481 10 10.004 10z"/></g></g></svg>