<svg height="512" viewBox="0 0 64 64" width="512" xmlns="http://www.w3.org/2000/svg"><g id="Fill_Outline" data-name="Fill Outline"><g id="Stroke_copy" data-name="Stroke copy"><g><path d="m20 25h2a5 5 0 0 1 5 5v14a13 13 0 0 1 -13 13h-8a3 3 0 0 1 -3-3v-12a17 17 0 0 1 17-17z" fill="#84d2f4"/><path d="m18 50a11 11 0 0 1 -11-11v-4a16.985 16.985 0 0 1 .667-4.677 16.92 16.92 0 0 0 -4.667 11.677v12a3 3 0 0 0 3 3h8a13 13 0 0 0 12.738-10.4 12.937 12.937 0 0 1 -8.738 3.4z" fill="#57b7eb"/><path d="m40 25h8a13 13 0 0 1 13 13v14a5 5 0 0 1 -5 5h-2a17 17 0 0 1 -17-17v-12a3 3 0 0 1 3-3z" fill="#84d2f4" transform="matrix(-1 0 0 -1 98 82)"/><path d="m42 32v-7a5 5 0 0 0 -5 5v14a13 13 0 0 0 13 13h8a3 3 0 0 0 3-3v-3a19 19 0 0 1 -19-19z" fill="#57b7eb"/><path d="m35.542 6.25-.542-3.25h-6l.542 3.25a12.051 12.051 0 0 1 -.549 5.772 12.727 12.727 0 0 0 -.473 6.1l.155.93a23.943 23.943 0 0 1 .325 3.926v.022h6v-.022a23.943 23.943 0 0 0 -.325-3.929l-.155-.93a12.727 12.727 0 0 1 .473-6.1 12.051 12.051 0 0 0 .549-5.769z" fill="#f89c8d"/><g fill="#f8664f"><path d="m34.488 22a2.622 2.622 0 0 1 -1.833-.747 2.663 2.663 0 0 1 -.773-1.652q-.078-.778-.207-1.552l-.155-.93a12.727 12.727 0 0 1 .473-6.1 12.048 12.048 0 0 0 .549-5.771l-.375-2.248h-3.167l.542 3.25a12.051 12.051 0 0 1 -.549 5.772 12.727 12.727 0 0 0 -.473 6.1l.155.93a23.943 23.943 0 0 1 .325 3.926v.022h6v-.022c0-.326-.027-.652-.04-.978z"/><path d="m34.391 15h-6a12.692 12.692 0 0 0 .129 3.119l.147.881h6l-.147-.881a12.692 12.692 0 0 1 -.129-3.119z"/><path d="m29.276 11h6a11.864 11.864 0 0 0 .336-4h-6a11.864 11.864 0 0 1 -.336 4z"/></g><path d="m29 23h6v4h-6z" fill="#cc5144"/><path d="m32 27v2.073a5.936 5.936 0 0 1 -4.843 5.835 5.945 5.945 0 0 0 -1.975.754l-7.182 4.338 4.053-7.3a3.315 3.315 0 0 1 2.9-1.7 3.315 3.315 0 0 0 2.965-1.833l1.082-2.167z" fill="#f89c8d"/><path d="m32 27v2.073a5.936 5.936 0 0 0 4.843 5.835 5.945 5.945 0 0 1 1.975.754l7.182 4.338-4.053-7.3a3.315 3.315 0 0 0 -2.9-1.7 3.315 3.315 0 0 1 -2.965-1.833l-1.082-2.167z" fill="#f89c8d"/><circle cx="53" cy="49" fill="#c4f236" r="2"/><path d="m25 14a11 11 0 1 0 -14.155 10.535l3.155 5.465 1.28-5.081a11 11 0 0 0 9.72-10.919z" fill="#f89c8d"/><g><path d="m12 44a2 2 0 0 0 -2-2 2 2 0 0 0 -2 2 6 6 0 0 0 6 6 2 2 0 0 0 2-2 2 2 0 0 0 -2-2 2 2 0 0 1 -2-2z" fill="#c4f236"/><path d="m15 48a6 6 0 0 1 -5.986-5.73 1.99 1.99 0 0 0 -1.014 1.73 6 6 0 0 0 6 6 2 2 0 0 0 2-2 1.905 1.905 0 0 0 -.027-.263 1.972 1.972 0 0 1 -.973.263z" fill="#a1d51c"/></g><path d="m21 19a10.983 10.983 0 0 1 -9.993-15.577 10.993 10.993 0 0 0 -.162 21.112l3.155 5.465 1.28-5.081a11 11 0 0 0 8.713-6.342 10.991 10.991 0 0 1 -2.993.423z" fill="#f8664f"/><g><path d="m14 12a2 2 0 0 0 -2-2 2 2 0 0 0 -2 2 6 6 0 0 0 6 6 2 2 0 0 0 2-2 2 2 0 0 0 -2-2 2 2 0 0 1 -2-2z" fill="#c4f236"/><path d="m17 16a6 6 0 0 1 -5.986-5.73 1.99 1.99 0 0 0 -1.014 1.73 6 6 0 0 0 6 6 2 2 0 0 0 2-2 1.905 1.905 0 0 0 -.027-.263 1.972 1.972 0 0 1 -.973.263z" fill="#a1d51c"/></g><path d="m16 18a2.036 2.036 0 0 0 .361-.036 11.009 11.009 0 0 1 -5.974-7.112 1.943 1.943 0 0 0 -.387 1.148 6 6 0 0 0 6 6z" fill="#7ab92d"/><path d="m31.52 17.119a12.658 12.658 0 0 1 -.151-2.119h-2.978a12.692 12.692 0 0 0 .129 3.119l.147.881h3.133c-.039-.317-.074-.636-.126-.951z" fill="#cc5144"/><path d="m29.612 7a11.864 11.864 0 0 1 -.336 4h2.724a12.886 12.886 0 0 0 .668-4z" fill="#cc5144"/><path d="m39.818 34.662a6.046 6.046 0 0 0 -1.993-.757 5.9 5.9 0 0 1 -2.925-1.485 1.981 1.981 0 0 1 1.124-3.375l-1.024-2.045h-3v2.073a5.936 5.936 0 0 0 4.843 5.835 5.945 5.945 0 0 1 1.975.754l7.182 4.338-1.341-2.414z" fill="#f8664f"/><path d="m24.182 34.662a6.046 6.046 0 0 1 1.993-.757 5.9 5.9 0 0 0 2.925-1.485 1.981 1.981 0 0 0 -1.124-3.375l1.024-2.045h3v2.073a5.936 5.936 0 0 1 -4.843 5.835 5.945 5.945 0 0 0 -1.975.754l-7.182 4.338 1.341-2.414z" fill="#f8664f"/><path d="m15.167 49.618a11 11 0 0 1 -7.12-5.958 1.907 1.907 0 0 0 -.047.34 6 6 0 0 0 6 6 1.983 1.983 0 0 0 1.167-.382z" fill="#7ab92d"/><path d="m54 49a1.993 1.993 0 0 1 -1.973-1.737 2 2 0 1 0 2.973 1.737 1.905 1.905 0 0 0 -.027-.263 1.972 1.972 0 0 1 -.973.263z" fill="#a1d51c"/><path d="m51.172 48.238a1.923 1.923 0 0 0 -.172.762 1.994 1.994 0 0 0 3.761.93 18.886 18.886 0 0 1 -3.589-1.692z" fill="#7ab92d"/></g></g><g id="Outline_copy" data-name="Outline copy"><g fill="#323232"><path d="m3 51a1 1 0 0 0 1-1v-8a15.94 15.94 0 0 1 7.838-13.745l1.3 2.245a1 1 0 0 0 .862.5.915.915 0 0 0 .138-.01 1 1 0 0 0 .832-.746l1.117-4.431a11.991 11.991 0 0 0 7.797-18.613 1 1 0 1 0 -1.647 1.134 9.991 9.991 0 0 1 -7.072 15.591 1 1 0 0 0 -.854.749l-.678 2.689-1.922-3.329a1 1 0 0 0 -.58-.458 10 10 0 0 1 2.869-19.576 9.935 9.935 0 0 1 5.664 1.763 1 1 0 0 0 1.136-1.647 12 12 0 0 0 -18.8 9.884 12.077 12.077 0 0 0 8.173 11.371l.666 1.154a17.927 17.927 0 0 0 -8.839 15.475v8a1 1 0 0 0 1 1z"/><path d="m61 45a1 1 0 0 0 -1 1v8a2 2 0 0 1 -2 2h-8a12.013 12.013 0 0 1 -12-12v-5.047a1 1 0 0 0 -2 0v5.047a14.015 14.015 0 0 0 14 14h8a4 4 0 0 0 4-4v-8a1 1 0 0 0 -1-1z"/><path d="m36.658 35.892a4.885 4.885 0 0 1 1.642.626 1 1 0 0 0 1.035-1.712 6.9 6.9 0 0 0 -2.308-.88 4.94 4.94 0 0 1 -4.027-4.853v-1.073h1.382l.807 1.614a4.288 4.288 0 0 0 3.784 2.386h.027.013.036a2.317 2.317 0 0 1 2.024 1.191l2.227 4.009-.1-.059-1.215-.733a1 1 0 1 0 -1.033 1.712l.615.371-.233 1.4a4.044 4.044 0 0 0 .666 2.947l-.315.948a1.775 1.775 0 0 1 -1.685 1.214 1 1 0 0 0 0 2 3.772 3.772 0 0 0 3.582-2.582 2.04 2.04 0 0 1 .418 1.215v2.367a1 1 0 0 0 2 0v-1h1a1 1 0 0 0 0-2h-1.055a4.035 4.035 0 0 0 -1.745-2.738 2.055 2.055 0 0 1 -.885-2.043l.1-.614 2.07 1.251a1 1 0 0 0 1.391-1.342l-1.368-2.463a3 3 0 0 1 2.492 2.949 3 3 0 0 0 3 3 1 1 0 0 0 0-2 1 1 0 0 1 -1-1 4.894 4.894 0 0 0 -.059-.584 1.448 1.448 0 0 1 1.689-.487 1 1 0 0 0 .74-1.858 3.46 3.46 0 0 0 -3.129.312 4.987 4.987 0 0 0 -4.241-2.383h-.634l-1.412-2.541.137-.136a.873.873 0 0 1 1.345.134 2.885 2.885 0 0 0 2.394 1.278 2.821 2.821 0 0 0 .693-.085l2.719-.68a1 1 0 1 0 -.484-1.94l-2.719.679a.873.873 0 0 1 -.939-.362 2.871 2.871 0 0 0 -4.414-.445 4.346 4.346 0 0 0 -.7-.434 6.2 6.2 0 0 1 4.014-1.468 1 1 0 0 0 0-2 8.188 8.188 0 0 0 -5.828 2.414l-.53.53a2.3 2.3 0 0 1 -.616-.2 3.993 3.993 0 0 1 3.974-3.744h2a16.019 16.019 0 0 1 16 16 1 1 0 0 0 2 0 18.021 18.021 0 0 0 -18-18h-2a6.007 6.007 0 0 0 -5.536 3.69l-.464-.926v-3.764-.011-.01a24.934 24.934 0 0 0 -.339-4.1l-.155-.928a11.782 11.782 0 0 1 .436-5.619 12.973 12.973 0 0 0 .586-6.25l-.542-3.251a1 1 0 0 0 -1.972.33l.472 2.839h-3.972l-.528-3.165a1 1 0 0 0 -1.972.33l.542 3.25a11.022 11.022 0 0 1 -.512 5.292 13.79 13.79 0 0 0 -.511 6.577l.155.929a22.867 22.867 0 0 1 .312 3.787v3.764l-.47.939a5.973 5.973 0 0 0 -3.193-3.23 5.519 5.519 0 0 0 -.522-.193 1 1 0 0 0 -.605 1.906c.117.037.232.08.347.128a3.986 3.986 0 0 1 2.424 3.425 2.3 2.3 0 0 1 -1.03.261 4.308 4.308 0 0 0 -2.533.831l-1.283-.247a2.633 2.633 0 0 1 -2.135-2.584 1 1 0 0 0 -2 0 4.637 4.637 0 0 0 3.758 4.548l.215.042-.419.755-.683-.274a3.7 3.7 0 0 0 -4.8 2.057 1.693 1.693 0 0 1 -2.2.944.226.226 0 0 1 -.139-.243l.256-1.678a1 1 0 1 0 -1.976-.3l-.256 1.678a2.216 2.216 0 0 0 1.373 2.4 3.641 3.641 0 0 0 1.21.249l.713 2.138a1 1 0 1 0 1.9-.632l-.656-1.969a3.669 3.669 0 0 0 1.637-1.843 1.7 1.7 0 0 1 2.2-.944l.446.179-2.449 4.407a1 1 0 0 0 1.391 1.342l4.175-2.521a2.047 2.047 0 0 1 -.888 1.927 4.035 4.035 0 0 0 -1.753 2.738h-1.055a1 1 0 0 0 0 2h1v1a1 1 0 0 0 2 0v-2.367a2.035 2.035 0 0 1 .418-1.217 3.768 3.768 0 0 0 3.532 2.584 12.011 12.011 0 0 1 -11.95 11h-8a2 2 0 0 1 -2-2 1 1 0 0 0 -2 0 4 4 0 0 0 4 4h8a14.015 14.015 0 0 0 14-14v-8.293a6.919 6.919 0 0 0 4-3.066 6.928 6.928 0 0 0 4.658 3.251zm-2.658-9.892h-4v-2h4zm-.467-7.716.155.929a22.961 22.961 0 0 1 .291 2.787h-4c-.026-.669-.089-1.336-.169-2h.856a1 1 0 0 0 0-2h-1.153l-.007-.045a11.63 11.63 0 0 1 -.138-1.955h4a13.75 13.75 0 0 0 .165 2.284zm-3.591-5.948a13.747 13.747 0 0 0 .722-4.336h4a10.906 10.906 0 0 1 -.193 2h-1.2a1 1 0 0 0 0 2h.691a13.811 13.811 0 0 0 -.443 2h-3.981a11.73 11.73 0 0 1 .404-1.664zm-5.626 29.451-.316-.949a4.048 4.048 0 0 0 .661-2.948l-.113-.677 1.151-.7c.1-.058.2-.1.3-.147v6.634a1.773 1.773 0 0 1 -1.683-1.213zm2.657-7.861a.954.954 0 0 0 -.175.048c-.007 0-.012.006-.019.007a6.892 6.892 0 0 0 -2.11.825l-3.969 2.394 2.229-4.011a2.317 2.317 0 0 1 2.022-1.189 4.292 4.292 0 0 0 3.86-2.386l.807-1.614h1.382v1.073a4.94 4.94 0 0 1 -4.027 4.853z"/><path d="m53.485 40.857a1 1 0 0 0 1.372-.343 6.828 6.828 0 0 0 .332-6.405 1 1 0 1 0 -1.812.845 4.832 4.832 0 0 1 -.234 4.532 1 1 0 0 0 .342 1.371z"/><circle cx="46" cy="52" r="1"/><circle cx="42" cy="49" r="1"/><circle cx="7" cy="53" r="1"/><circle cx="57" cy="42" r="1"/><circle cx="49" cy="29" r="1"/><circle cx="20" cy="51" r="1"/><circle cx="8" cy="37" r="1"/><path d="m57 50a1 1 0 0 0 0-2h-1.184a2.746 2.746 0 0 0 -.117-.285l.836-.837a1 1 0 1 0 -1.414-1.414l-.836.837a2.746 2.746 0 0 0 -.285-.117v-1.184a1 1 0 0 0 -2 0v1.184a3 3 0 0 0 -1.816 1.816h-1.184a1 1 0 0 0 0 2h1.184a2.746 2.746 0 0 0 .117.285l-.836.837a1 1 0 1 0 1.414 1.414l.836-.837a2.746 2.746 0 0 0 .285.117v1.184a1 1 0 0 0 2 0v-1.184a2.746 2.746 0 0 0 .285-.117l.836.837a1 1 0 1 0 1.414-1.414l-.836-.837a2.746 2.746 0 0 0 .117-.285zm-4-2a1 1 0 1 1 -1 1 1 1 0 0 1 1-1z"/><path d="m10 39a1 1 0 0 0 -1 1v1.184a3 3 0 0 0 -.744.385l-.756-.436a1 1 0 1 0 -1 1.734l.614.353a2.953 2.953 0 0 0 -.114.78 6.945 6.945 0 0 0 .036.71l-1.278.32a1 1 0 0 0 .242 1.97.968.968 0 0 0 .243-.03l1.282-.32a6.989 6.989 0 0 0 .875 1.534l-1.107 1.109a1 1 0 1 0 1.414 1.414l1.109-1.107a6.973 6.973 0 0 0 1.535.878l-.321 1.281a1 1 0 0 0 .728 1.213.968.968 0 0 0 .242.028 1 1 0 0 0 .969-.757l.319-1.279a6.964 6.964 0 0 0 .712.036 3.018 3.018 0 0 0 .469-.047l.611 1.438a1 1 0 0 0 .92.609.981.981 0 0 0 .391-.08 1 1 0 0 0 .529-1.311l-.689-1.622a2.983 2.983 0 0 0 .585-.987h1.184a1 1 0 0 0 0-2h-1.184a2.994 2.994 0 0 0 -.452-.825l.436-.575a1 1 0 0 0 -1.6-1.2l-.521.689a3.011 3.011 0 0 0 -.679-.089 1 1 0 0 1 -1-1 2.953 2.953 0 0 0 -.116-.78l.614-.353a1 1 0 0 0 -1-1.734l-.758.436a2.984 2.984 0 0 0 -.74-.385v-1.184a1 1 0 0 0 -1-1zm4 8a1 1 0 0 1 0 2 5.006 5.006 0 0 1 -5-5 1 1 0 0 1 2 0 3 3 0 0 0 3 3z"/><path d="m20 17a1 1 0 0 0 0-2h-1.184a2.994 2.994 0 0 0 -.452-.825l.436-.575a1 1 0 0 0 -1.6-1.2l-.521.689a3.011 3.011 0 0 0 -.679-.089 1 1 0 0 1 -1-1 2.953 2.953 0 0 0 -.116-.78l.614-.353a1 1 0 1 0 -1-1.734l-.758.436a2.984 2.984 0 0 0 -.74-.385v-1.184a1 1 0 0 0 -2 0v1.184a3 3 0 0 0 -.744.385l-.756-.436a1 1 0 1 0 -1 1.734l.614.353a2.953 2.953 0 0 0 -.114.78 6.945 6.945 0 0 0 .036.71l-1.278.32a1 1 0 0 0 .242 1.97.968.968 0 0 0 .243-.03l1.282-.32a6.989 6.989 0 0 0 .878 1.534l-1.11 1.109a1 1 0 1 0 1.414 1.414l1.109-1.107a6.973 6.973 0 0 0 1.535.878l-.321 1.281a1 1 0 0 0 .728 1.213.968.968 0 0 0 .242.028 1 1 0 0 0 .969-.757l.319-1.279a6.964 6.964 0 0 0 .712.036 3.018 3.018 0 0 0 .469-.047l.611 1.438a1 1 0 0 0 .92.609.981.981 0 0 0 .391-.08 1 1 0 0 0 .529-1.311l-.689-1.622a2.983 2.983 0 0 0 .585-.987zm-9-5a1 1 0 0 1 2 0 3 3 0 0 0 3 3 1 1 0 0 1 0 2 5.006 5.006 0 0 1 -5-5z"/></g></g></g></svg>